<?xml version="1.0" encoding="UTF-8" standalone="no"?>
<svg
   xmlns:dc="http://purl.org/dc/elements/1.1/"
   xmlns:cc="http://creativecommons.org/ns#"
   xmlns:rdf="http://www.w3.org/1999/02/22-rdf-syntax-ns#"
   xmlns:svg="http://www.w3.org/2000/svg"
   xmlns="http://www.w3.org/2000/svg"
   xmlns:sodipodi="http://sodipodi.sourceforge.net/DTD/sodipodi-0.dtd"
   xmlns:inkscape="http://www.inkscape.org/namespaces/inkscape"
   width="210mm"
   height="297mm"
   viewBox="0 0 210 297"
   version="1.1"
   id="svg8"
   inkscape:version="1.0.1 (3bc2e813f5, 2020-09-07)"
   sodipodi:docname="logo.svg">
  <defs
     id="defs2" />
  <sodipodi:namedview
     id="base"
     pagecolor="#ffffff"
     bordercolor="#666666"
     borderopacity="1.0"
     inkscape:pageopacity="0.0"
     inkscape:pageshadow="2"
     inkscape:zoom="0.7"
     inkscape:cx="377.13097"
     inkscape:cy="714.14342"
     inkscape:document-units="mm"
     inkscape:current-layer="layer1"
     inkscape:document-rotation="0"
     showgrid="false"
     inkscape:window-width="2560"
     inkscape:window-height="1377"
     inkscape:window-x="0"
     inkscape:window-y="0"
     inkscape:window-maximized="1" />
  <metadata
     id="metadata5">
    <rdf:RDF>
      <cc:Work
         rdf:about="">
        <dc:format>image/svg+xml</dc:format>
        <dc:type
           rdf:resource="http://purl.org/dc/dcmitype/StillImage" />
        <dc:title></dc:title>
      </cc:Work>
    </rdf:RDF>
  </metadata>
  <g
     inkscape:label="Layer 1"
     inkscape:groupmode="layer"
     id="layer1">
    <path
       style="fill:#0000ff;stroke-width:0.0360094"
       d="m 104.72904,156.87546 c -1.20091,-0.0783 -2.12255,-0.28599 -3.02963,-0.68263 -2.163804,-0.94617 -3.743874,-2.50234 -4.726584,-4.65508 -0.23198,-0.50819 -0.4003,-1.02628 -0.54125,-1.66597 -0.0653,-0.29623 -0.13039,-0.55032 -0.1447,-0.56464 -0.0143,-0.0143 -0.19076,-0.0355 -0.39212,-0.047 -0.20137,-0.0115 0.90996,-0.0237 2.46962,-0.027 l 2.835744,-0.006 v 0.13152 0.13152 l -0.65717,-0.024 c -0.36144,-0.0132 -0.865674,-0.0344 -1.120504,-0.0471 l -0.46332,-0.0231 0.025,0.0866 c 0.32934,1.13853 0.73363,1.91005 1.395834,2.66368 0.74287,0.84546 2.00098,1.63186 3.1074,1.94232 0.71977,0.20197 1.65804,0.28915 2.35279,0.2186 0.79857,-0.0811 1.92521,-0.44032 2.61669,-0.83435 1.05047,-0.5986 2.04747,-1.66032 2.53394,-2.69842 0.16456,-0.35115 0.49301,-1.32221 0.45879,-1.35642 -0.0126,-0.0126 -0.47255,-0.004 -1.02212,0.0197 -1.41418,0.0604 -1.30531,0.0674 -1.30531,-0.0846 v -0.12603 l 2.85375,0.007 c 1.56956,0.004 2.70082,0.0159 2.51391,0.027 l -0.33984,0.0201 -0.0803,0.40915 c -0.0956,0.48698 -0.21557,0.88444 -0.43642,1.44533 -0.97166,2.46789 -2.72177,4.21179 -5.20481,5.18637 -0.63605,0.24965 -1.1722,0.38297 -1.93499,0.48118 -0.42561,0.0548 -1.41274,0.0952 -1.76446,0.0723 z m 1.5574,-0.24807 c 0.56884,-0.0665 0.97146,-0.15355 1.49506,-0.32311 1.44486,-0.46788 2.65343,-1.19155 3.64354,-2.18166 0.84662,-0.84662 1.62119,-2.02274 1.99681,-3.03201 0.23435,-0.62965 0.4896,-1.52096 0.4896,-1.70959 v -0.0903 l -0.71119,0.0264 c -0.39115,0.0145 -0.88891,0.0367 -1.10613,0.0492 l -0.39494,0.0228 -0.075,0.27007 c -0.0984,0.35459 -0.37824,1.05893 -0.56841,1.43074 -0.54643,1.0683 -1.68779,2.15425 -2.90588,2.7648 -0.38046,0.19069 -1.13446,0.45048 -1.5484,0.53349 -0.14854,0.0298 -0.51786,0.0831 -0.82071,0.11834 -0.47724,0.0556 -0.61162,0.0585 -1.00826,0.0213 -0.8701,-0.0815 -1.59033,-0.28367 -2.41931,-0.67914 -1.0486,-0.50025 -1.85173,-1.18305 -2.570234,-2.18513 -0.45605,-0.63604 -0.67613,-1.08459 -0.88632,-1.80637 -0.0634,-0.21785 -0.13422,-0.41397 -0.15729,-0.43581 -0.0401,-0.0379 -2.17501,-0.14384 -2.20925,-0.1096 -0.0313,0.0313 0.1055,0.69611 0.22327,1.08466 0.23656,0.78043 0.56037,1.45562 1.05766,2.20538 0.88304,1.33134 1.81453,2.22447 3.064944,2.93869 0.92416,0.52788 2.14802,0.95077 3.13282,1.08249 0.5154,0.0689 1.7059,0.0712 2.27758,0.004 z m -1.70143,-0.16509 c -0.10893,-0.0142 -0.36591,-0.0457 -0.57106,-0.0701 l -0.37301,-0.0443 0.0959,-0.0765 c 0.0919,-0.0733 0.0991,-0.10526 0.17391,-0.76706 0.0763,-0.67567 0.0766,-0.69217 0.0105,-0.7652 -0.0661,-0.073 -0.0661,-0.0746 0.001,-0.0752 0.0378,-2.7e-4 0.29951,0.0263 0.58173,0.0592 l 0.51314,0.0598 v 0.1359 c 0,0.27007 -0.10746,0.34374 -0.18014,0.1235 -0.051,-0.1545 -0.101,-0.18257 -0.38249,-0.21466 l -0.22053,-0.0251 -0.0244,0.21006 c -0.0134,0.11554 -0.0332,0.2615 -0.044,0.32436 -0.0193,0.11261 -0.0171,0.11469 0.15244,0.1401 0.15871,0.0238 0.17871,0.0181 0.25797,-0.0741 0.12114,-0.14084 0.1636,-0.0792 0.13281,0.19292 -0.027,0.23893 -0.097,0.29577 -0.16008,0.12997 -0.0394,-0.10366 -0.0697,-0.11863 -0.26877,-0.13287 l -0.14308,-0.0103 -0.0403,0.34209 c -0.0222,0.18815 -0.0342,0.34941 -0.0267,0.35836 0.007,0.009 0.13835,0.017 0.29082,0.018 l 0.2772,0.002 0.0726,-0.13494 c 0.11324,-0.21042 0.17776,-0.17934 0.14828,0.0714 -0.0133,0.11361 -0.0358,0.21602 -0.05,0.22759 -0.0141,0.0116 -0.11481,0.009 -0.22374,-0.005 z m 1.22432,0.017 c 0,-0.0146 0.0275,-0.057 0.0612,-0.0942 0.0576,-0.0637 0.0564,-0.10236 -0.0215,-0.66901 -0.1116,-0.81156 -0.10738,-0.79484 -0.21546,-0.85205 -0.11496,-0.0609 -0.09,-0.0714 0.29432,-0.12462 0.69326,-0.096 0.88976,-0.005 0.88976,0.41372 0,0.14704 -0.0174,0.18545 -0.13897,0.30704 l -0.13898,0.13898 0.0851,0.0557 c 0.0468,0.0306 0.16859,0.16203 0.27069,0.29195 0.1021,0.12993 0.22709,0.25199 0.27776,0.27125 0.0744,0.0283 0.082,0.0414 0.0393,0.0684 -0.029,0.0184 -0.11817,0.0336 -0.19809,0.034 -0.1411,5.2e-4 -0.15201,-0.008 -0.3781,-0.31453 -0.19368,-0.26213 -0.25095,-0.31666 -0.34083,-0.32447 -0.19233,-0.0167 -0.21284,0.0223 -0.16863,0.32064 0.0283,0.19114 0.0598,0.28155 0.11295,0.32468 0.0405,0.0329 0.0737,0.0678 0.0737,0.0777 0,0.01 -0.0851,0.0286 -0.18904,0.0418 -0.10398,0.0132 -0.21741,0.032 -0.25207,0.0418 -0.0346,0.01 -0.063,0.006 -0.063,-0.009 z m 0.61816,-0.97296 c 0.21692,-0.10912 0.20966,-0.53219 -0.0111,-0.64634 -0.14855,-0.0768 -0.47437,-0.0397 -0.44915,0.0512 0.009,0.0327 0.0355,0.19998 0.0586,0.37174 l 0.0421,0.31228 0.13171,-0.0203 c 0.0725,-0.0111 0.17493,-0.042 0.22775,-0.0686 z m 1.48655,0.36571 c -0.0649,-0.15528 -0.0652,-0.18652 -0.002,-0.21077 0.0276,-0.0106 0.0871,0.0201 0.13231,0.0682 0.17664,0.18803 0.55287,0.0554 0.54582,-0.1924 -0.007,-0.24486 -0.13845,-0.34349 -0.51225,-0.38425 -0.28987,-0.0316 -0.45548,-0.10725 -0.52373,-0.23923 -0.076,-0.14705 -0.0654,-0.34568 0.0254,-0.47312 0.0821,-0.11535 0.3585,-0.25771 0.57158,-0.29443 0.12378,-0.0213 0.1288,-0.0176 0.18629,0.1375 0.0525,0.14169 0.053,0.16175 0.004,0.18044 -0.031,0.0119 -0.10271,-0.0193 -0.16499,-0.0717 -0.0822,-0.0692 -0.13386,-0.0869 -0.20352,-0.0698 -0.23981,0.0589 -0.34836,0.23721 -0.25059,0.41165 0.0679,0.12122 0.18721,0.17534 0.44805,0.20331 0.42491,0.0456 0.62746,0.21969 0.62746,0.53939 0,0.17775 -0.1971,0.37177 -0.46585,0.45857 -0.28955,0.0935 -0.35695,0.0833 -0.41822,-0.0633 z m -6.02074,-0.0631 c -0.36436,-0.14606 -0.44929,-0.2081 -0.28485,-0.2081 0.098,0 0.0951,0.006 0.38778,-0.73442 0.21839,-0.55213 0.24329,-0.66042 0.16894,-0.73477 -0.0836,-0.0836 0.0646,-0.0459 0.45738,0.1164 0.41827,0.17285 0.5423,0.26267 0.57627,0.41734 0.0469,0.21374 -0.15735,0.46732 -0.37649,0.46732 -0.0794,0 -0.0988,0.0523 -0.0341,0.0923 0.0218,0.0135 0.0628,0.0799 0.091,0.14748 0.0691,0.16549 0.0133,0.37165 -0.13418,0.49579 -0.16687,0.14042 -0.39267,0.12468 -0.85178,-0.0593 z m 0.70099,-0.13241 c 0.10354,-0.15409 0.10691,-0.33908 0.008,-0.43803 -0.0679,-0.0679 -0.39147,-0.22892 -0.41343,-0.20571 -0.0195,0.0206 -0.26754,0.65302 -0.25922,0.66087 0.0577,0.0544 0.2952,0.1176 0.42163,0.11216 0.13923,-0.006 0.1719,-0.0234 0.24306,-0.12929 z m 0.28808,-0.7922 c 0.0452,-0.0673 0.0822,-0.16125 0.0822,-0.20878 0,-0.11246 -0.14492,-0.24428 -0.34257,-0.31163 l -0.15746,-0.0537 -0.11008,0.28827 c -0.0605,0.15854 -0.11008,0.29576 -0.11008,0.30493 0,0.0471 0.25434,0.11907 0.39491,0.11167 0.13843,-0.007 0.17231,-0.0255 0.24307,-0.13081 z m -2.23368,0.29047 -0.13732,-0.0961 0.0268,-0.25207 c 0.0148,-0.13863 0.0279,-0.3393 0.0293,-0.44593 0.003,-0.17091 -0.009,-0.20266 -0.0965,-0.26805 -0.11331,-0.0849 -0.0863,-0.10513 -0.33599,0.25101 -0.11029,0.15728 -0.12374,0.19663 -0.0893,0.26107 0.0636,0.11879 -0.0124,0.0944 -0.240294,-0.0772 l -0.20326,-0.15304 0.113,-0.0111 c 0.0997,-0.01 0.16219,-0.0772 0.532064,-0.57376 0.36043,-0.48388 0.41624,-0.57681 0.39879,-0.66403 -0.0112,-0.0558 -0.0104,-0.10141 0.002,-0.10141 0.0121,0 0.16504,0.10652 0.3399,0.23672 0.45427,0.33823 0.54463,0.51374 0.39273,0.76287 -0.10875,0.17837 -0.2758,0.2685 -0.45573,0.24588 l -0.14945,-0.0188 0.017,0.13385 c 0.009,0.0736 0.003,0.24978 -0.0147,0.39146 -0.0174,0.14168 -0.0182,0.29423 -0.002,0.339 0.0489,0.13207 0.0184,0.14156 -0.12726,0.0397 z m 0.35626,-1.08224 c 0.061,-0.0372 0.13938,-0.12762 0.17416,-0.20093 0.0533,-0.11238 0.0563,-0.15012 0.0188,-0.24051 -0.0431,-0.10407 -0.24141,-0.28515 -0.30732,-0.28063 -0.0344,0.003 -0.45964,0.57383 -0.44009,0.59138 0.0889,0.0798 0.30887,0.19856 0.3675,0.19846 0.0418,-8e-5 0.1259,-0.0305 0.18691,-0.0678 z m 8.75172,1.11916 c -0.01,-0.0156 -0.003,-0.052 0.0155,-0.0807 0.0182,-0.0288 0.0333,-0.0637 0.0336,-0.0776 2.7e-4,-0.0139 -0.19495,-0.28684 -0.43389,-0.60647 -0.39294,-0.52563 -0.44282,-0.57905 -0.52214,-0.55914 -0.0482,0.0121 -0.0877,0.007 -0.0877,-0.0103 0,-0.0328 0.37408,-0.3291 0.41543,-0.3291 0.0123,0 0.0123,0.0459 1e-5,0.10199 -0.0183,0.0835 0.008,0.14381 0.14619,0.33308 0.0927,0.12711 0.17311,0.23654 0.17864,0.24318 0.0183,0.0219 0.55877,-0.40017 0.54831,-0.4282 -0.006,-0.0151 -0.0872,-0.12613 -0.18125,-0.24677 -0.12817,-0.16439 -0.19356,-0.21934 -0.26106,-0.21934 -0.12661,0 -0.11106,-0.0365 0.0733,-0.17216 0.23449,-0.1725 0.27258,-0.18118 0.24863,-0.0567 -0.017,0.0884 0.0365,0.17856 0.38125,0.64296 0.41032,0.55267 0.46985,0.61461 0.55809,0.58074 0.0278,-0.0107 0.0589,-0.006 0.0691,0.0103 0.0211,0.0341 -0.40671,0.34467 -0.43529,0.31609 -0.0103,-0.0103 -0.002,-0.0511 0.0198,-0.0907 0.0324,-0.0607 0.007,-0.11601 -0.16321,-0.35417 -0.11092,-0.15524 -0.20519,-0.28624 -0.20947,-0.29112 -0.007,-0.008 -0.50462,0.35537 -0.55061,0.40136 -0.009,0.009 0.0744,0.13906 0.18534,0.28905 0.15733,0.21274 0.22142,0.2727 0.29144,0.2727 0.0494,0 0.0898,0.0143 0.0898,0.0317 0,0.0477 -0.38951,0.33221 -0.4098,0.29939 z m -10.948004,-1.63081 c -0.17649,-0.22727 -0.1918,-0.2847 -0.0566,-0.21235 0.0676,0.0362 0.0928,0.0287 0.17804,-0.053 0.20658,-0.19792 0.20799,-0.23721 0.0173,-0.48283 -0.0943,-0.1214 -0.18367,-0.22072 -0.19866,-0.22072 -0.015,0 -0.0992,0.0308 -0.18707,0.0685 -0.17292,0.0741 -0.21309,0.13159 -0.1801,0.25773 0.0292,0.11184 -0.0263,0.0707 -0.18446,-0.13669 -0.17154,-0.22495 -0.17299,-0.24549 -0.0163,-0.23198 0.0869,0.007 0.39073,-0.0698 0.89631,-0.22812 0.7616,-0.23845 0.7651,-0.23916 0.83592,-0.16833 0.0708,0.0708 0.0691,0.074 -0.40117,0.74856 -0.33137,0.47529 -0.4723,0.70744 -0.4723,0.77802 0,0.0553 -0.0136,0.10061 -0.0302,0.10061 -0.0166,0 -0.10692,-0.0988 -0.20066,-0.21946 z m 0.63973,-0.94899 c 0.11057,-0.15742 0.19447,-0.29278 0.18645,-0.30081 -0.0129,-0.0129 -0.70195,0.20239 -0.73358,0.22908 -0.007,0.006 0.0565,0.10145 0.1406,0.21279 0.0841,0.11135 0.1647,0.18956 0.17917,0.1738 0.0145,-0.0158 0.11678,-0.15744 0.22736,-0.31486 z m 11.774594,0.68318 c -0.58343,-0.29545 -0.81635,-0.80315 -0.55648,-1.21294 0.26386,-0.41607 0.74303,-0.40579 1.22356,0.0262 0.42059,0.37815 0.43064,0.8535 0.0248,1.17273 -0.16182,0.12729 -0.45637,0.13324 -0.69189,0.014 z m 0.71975,-0.20047 c 0.12531,-0.0986 0.15655,-0.2784 0.0774,-0.4453 -0.13845,-0.29175 -0.68189,-0.66944 -0.96323,-0.66944 -0.2819,0 -0.43809,0.30184 -0.29719,0.57432 0.0724,0.13991 0.39448,0.41659 0.61118,0.52493 0.22207,0.11105 0.44281,0.11702 0.57189,0.0155 z m -14.217534,-1.40135 c -0.14058,-0.0585 -0.27372,-0.24585 -0.43468,-0.6116 -0.15291,-0.34745 -0.17896,-0.46802 -0.0797,-0.36872 0.0234,0.0234 0.0647,0.0426 0.0918,0.0426 0.0586,0 1.23099,-0.49641 1.29579,-0.54867 0.0248,-0.02 0.045,-0.0681 0.045,-0.10691 0,-0.14731 0.0839,-0.0317 0.23744,0.32736 0.19952,0.4665 0.22148,0.5968 0.12621,0.74912 -0.12051,0.19267 -0.43779,0.22624 -0.61578,0.0652 -0.0577,-0.0523 -0.0636,-0.0457 -0.0821,0.0925 -0.0241,0.17937 -0.13705,0.30917 -0.31126,0.35756 -0.15005,0.0417 -0.17612,0.0418 -0.27274,0.002 z m 0.30976,-0.29969 c 0.0973,-0.0653 0.12467,-0.11 0.13364,-0.21788 0.009,-0.10996 -0.0827,-0.45615 -0.12101,-0.45615 -0.0268,0 -0.61381,0.25982 -0.63571,0.28135 -0.0344,0.0338 0.0914,0.30696 0.1841,0.39964 0.0999,0.0999 0.28422,0.097 0.43898,-0.007 z m 0.76567,-0.35255 c 0.0674,-0.053 0.0947,-0.10775 0.0941,-0.18905 -5.2e-4,-0.12195 -0.12043,-0.42044 -0.16849,-0.42059 -0.0825,-2.7e-4 -0.55091,0.23619 -0.55091,0.2781 0,0.0809 0.139,0.32765 0.2068,0.36713 0.1074,0.0625 0.31633,0.0448 0.41851,-0.0356 z m 14.129554,0.62983 c -0.0149,-0.0149 -0.027,-0.0549 -0.027,-0.089 0,-0.0715 -0.0404,-0.0918 -0.78725,-0.39671 -0.47551,-0.1941 -0.56324,-0.21954 -0.62467,-0.18118 -0.0393,0.0246 -0.0801,0.0361 -0.0905,0.0256 -0.0356,-0.0356 0.28611,-0.74304 0.3869,-0.85093 0.12934,-0.13846 0.30271,-0.15269 0.53466,-0.0439 0.24897,0.11681 0.31752,0.38826 0.18565,0.73531 -0.0391,0.10301 -0.0675,0.19068 -0.063,0.19484 0.0293,0.0271 0.48086,0.19479 0.52465,0.19479 0.0297,0 0.086,-0.0284 0.12521,-0.063 0.0693,-0.0613 0.0706,-0.0603 0.0472,0.0359 -0.0422,0.17324 -0.18377,0.46633 -0.21179,0.43825 z m -0.54731,-0.78811 c 0.11709,-0.28021 0.0251,-0.47457 -0.26587,-0.56174 -0.12576,-0.0377 -0.15987,-0.0354 -0.23796,0.0157 -0.10691,0.07 -0.18629,0.18401 -0.21792,0.31286 -0.0214,0.0873 -0.006,0.0989 0.29464,0.2216 0.17449,0.0712 0.33023,0.13106 0.34609,0.13296 0.0159,0.002 0.0523,-0.0527 0.081,-0.12142 z m -7.68626,2.85259 c -0.002,-0.0941 0.0126,-0.17104 0.0324,-0.17104 0.0417,0 0.0417,0.12194 0,0.25207 -0.0235,0.0734 -0.0294,0.0584 -0.0324,-0.081 z m 0.51855,0.11704 c 0.0122,-0.0198 0.0294,-0.036 0.0381,-0.036 0.009,0 0.0159,0.0162 0.0159,0.036 0,0.0198 -0.0172,0.036 -0.0381,0.036 -0.021,0 -0.0281,-0.0162 -0.0159,-0.036 z m 0.62986,-0.063 c -1.4e-4,-0.0346 -0.0104,-0.15214 -0.0227,-0.26107 -0.0157,-0.13891 -0.0109,-0.1873 0.0158,-0.16204 0.0564,0.0532 0.099,0.48613 0.0477,0.48613 -0.0223,0 -0.0408,-0.0284 -0.041,-0.063 z m -1.78561,-0.13504 c 0.0584,-0.349 0.10062,-0.52213 0.1273,-0.52213 0.0333,0 -0.0836,0.60275 -0.12421,0.64075 -0.0149,0.014 -0.0163,-0.0394 -0.003,-0.11862 z m 2.30983,0.0493 c -0.12498,-0.54012 -0.1363,-0.6279 -0.0727,-0.56435 0.0303,0.0303 0.13281,0.60929 0.11162,0.63048 -0.0105,0.0105 -0.0281,-0.0192 -0.0389,-0.0661 z m -1.29412,-0.19797 c -0.12113,-0.19104 -0.46956,-0.57595 -0.57006,-0.62973 -0.0669,-0.0358 -0.0671,-0.0339 -0.008,0.0567 0.0338,0.0516 0.0546,0.10066 0.0461,0.10907 -0.008,0.008 -0.13619,-0.0776 -0.28396,-0.19108 -0.14776,-0.1135 -0.36771,-0.27561 -0.48877,-0.36025 -0.12106,-0.0846 -0.28634,-0.2353 -0.36728,-0.3348 -0.0882,-0.10844 -0.22057,-0.2175 -0.33038,-0.27222 -0.18638,-0.0929 -0.36056,-0.29465 -0.36056,-0.41767 0,-0.036 -0.0371,-0.10107 -0.0825,-0.14468 -0.1082,-0.10401 -0.30261,-0.41536 -0.33058,-0.52942 -0.0121,-0.0495 0.004,-0.21092 0.0345,-0.35868 0.0312,-0.14776 0.0664,-0.38428 0.0784,-0.52561 l 0.0217,-0.25695 -0.1084,0.0159 -0.10841,0.0159 0.10218,-0.21049 c 0.11071,-0.22806 0.19968,-0.73455 0.1459,-0.83063 -0.0226,-0.0403 -0.0385,-0.007 -0.0574,0.11866 -0.0426,0.28395 -0.0808,0.12322 -0.13111,-0.5518 l -0.0463,-0.62116 h -0.10271 c -0.0624,0 -0.13916,-0.0365 -0.19548,-0.0928 -0.0874,-0.0874 -0.0914,-0.10693 -0.0687,-0.33694 0.0216,-0.2193 0.0129,-0.27228 -0.0857,-0.52032 -0.12712,-0.32 -0.12936,-0.35455 -0.0509,-0.78351 0.0815,-0.44528 0.23076,-0.60661 0.41067,-0.44379 0.0562,0.0509 0.0628,0.0441 0.0835,-0.085 0.019,-0.11906 -0.0712,-0.72636 -0.17886,-1.2032 -0.018,-0.0797 -0.002,-0.11682 0.0857,-0.19339 l 0.10797,-0.0947 -0.11243,-0.18085 c -0.0927,-0.14918 -0.1119,-0.21623 -0.10945,-0.38277 0.004,-0.23308 0.0698,-0.38122 0.32457,-0.72403 l 0.17392,-0.23407 0.0221,0.15902 c 0.0162,0.1167 0.05,0.18133 0.12696,0.24288 0.0576,0.0462 0.11696,0.084 0.13182,0.084 0.0149,1.1e-4 0.027,-0.0651 0.027,-0.14501 0,-0.0799 0.025,-0.20508 0.0556,-0.27828 l 0.0556,-0.13308 0.0445,0.0892 c 0.0746,0.14971 0.22158,0.19748 0.60052,0.19521 0.23042,-0.002 0.38322,-0.0206 0.46812,-0.0589 l 0.12603,-0.0568 -0.16204,0.0149 c -0.14281,0.0131 -0.11977,-0.002 0.19405,-0.12118 0.26442,-0.10106 0.33212,-0.13899 0.26295,-0.14731 -0.0512,-0.006 -0.15385,0.006 -0.22804,0.026 -0.1882,0.052 -0.18949,0.0253 -0.004,-0.0834 0.35352,-0.20717 1.14009,-0.22875 2.01181,-0.0552 1.05006,0.20909 1.19958,0.26648 1.34625,0.51675 0.0513,0.0875 0.11604,0.178 0.14395,0.20116 0.0426,0.0354 0.0458,0.0257 0.0202,-0.06 -0.0168,-0.0561 -0.0489,-0.14888 -0.0714,-0.2061 -0.0578,-0.14723 -0.0241,-0.15558 0.0603,-0.0149 0.25974,0.43293 0.41073,0.75731 0.39034,0.83856 -0.0184,0.0731 -0.002,0.0964 0.10284,0.14614 0.17064,0.081 0.27718,0.30961 0.29892,0.64149 0.015,0.22977 0.0113,0.24995 -0.0352,0.18925 -0.0475,-0.062 -0.0605,-0.0333 -0.14796,0.327 -0.0528,0.21722 -0.0959,0.4759 -0.0959,0.57485 0,0.17818 10e-4,0.17975 0.10482,0.16451 0.14776,-0.0217 0.20692,0.0855 0.29999,0.54363 l 0.0769,0.37854 -0.11482,0.29334 c -0.0945,0.24139 -0.11483,0.34349 -0.11483,0.5765 0,0.26301 -0.007,0.28847 -0.0949,0.35779 -0.0522,0.0411 -0.12511,0.0746 -0.16205,0.0746 -0.0516,0 -0.0673,0.027 -0.0677,0.11703 -2.7e-4,0.0644 -0.0327,0.29396 -0.072,0.51023 -0.0393,0.21626 -0.0717,0.44312 -0.072,0.50413 -2.7e-4,0.061 -0.0152,0.13418 -0.0332,0.16261 -0.025,0.0394 -0.0418,0.0224 -0.0712,-0.072 -0.033,-0.10601 -0.0358,-0.0887 -0.0196,0.121 0.0198,0.25583 0.12382,0.57156 0.2265,0.68744 0.0577,0.0652 0.0554,0.0672 -0.0569,0.0512 l -0.11703,-0.0167 v 0.18865 c 0,0.10375 0.0243,0.31566 0.054,0.47088 0.0822,0.4297 0.0731,0.51171 -0.0838,0.75379 -0.0758,0.11695 -0.16492,0.23487 -0.19806,0.26206 -0.0331,0.0272 -0.0602,0.0879 -0.0602,0.13493 0,0.11734 -0.23635,0.37036 -0.42359,0.45348 -0.11896,0.0528 -0.1914,0.12563 -0.32169,0.3234 -0.13325,0.20225 -0.24219,0.31034 -0.52473,0.52062 -0.19612,0.14596 -0.39165,0.2836 -0.43452,0.30588 -0.073,0.0379 -0.0724,0.0345 0.009,-0.0544 0.17176,-0.18674 -0.0295,-0.0743 -0.36115,0.20167 -0.0912,0.0759 -0.2178,0.21037 -0.28132,0.29881 -0.0635,0.0884 -0.12662,0.16021 -0.14025,0.15949 -0.0136,-5.2e-4 -0.0716,-0.0752 -0.1288,-0.1654 z m 0.22605,-0.32842 c 0.0453,-0.0941 0.15979,-0.29257 0.25445,-0.44111 0.20242,-0.31767 0.36985,-0.64486 0.43304,-0.84622 0.0249,-0.0792 0.10659,-0.25747 0.18162,-0.39611 0.075,-0.13863 0.15675,-0.32104 0.18158,-0.40534 0.0248,-0.0843 0.052,-0.14645 0.0603,-0.1381 0.0318,0.0318 -0.0715,0.57304 -0.13676,0.71686 -0.10412,0.22933 -0.0835,0.26317 0.055,0.0904 0.16705,-0.20825 0.26911,-0.40089 0.30853,-0.58232 0.0266,-0.1222 0.0301,-0.096 0.0193,0.14281 -0.0182,0.40092 -0.0999,0.56759 -0.46342,0.94553 -0.16422,0.17072 -0.32219,0.34203 -0.35104,0.3807 -0.0496,0.0664 -0.0485,0.0674 0.0201,0.018 0.57182,-0.41216 0.85775,-0.75163 0.93523,-1.11037 0.0168,-0.0779 0.0362,-0.10572 0.0539,-0.0772 0.0421,0.068 0.10822,-0.35606 0.13337,-0.85476 0.0122,-0.24288 0.0307,-0.43312 0.0411,-0.42274 0.0104,0.0104 0.0368,0.201 0.0587,0.42361 l 0.0398,0.40475 0.0694,-0.30608 0.0694,-0.30608 0.0276,0.32408 c 0.0157,0.18403 0.0124,0.43803 -0.008,0.58776 -0.0527,0.39533 -0.0502,0.40276 0.0866,0.25574 0.13286,-0.1428 0.14136,-0.19095 0.18874,-1.06856 0.0345,-0.63899 0.10599,-0.58611 0.14608,0.10803 0.0123,0.21291 0.0342,0.3871 0.0486,0.3871 0.0145,0 0.0468,-0.0496 0.0718,-0.11011 0.0375,-0.0905 0.0346,-0.23011 -0.0163,-0.7832 -0.0341,-0.3702 -0.0931,-0.78094 -0.13126,-0.91275 -0.0382,-0.13181 -0.0694,-0.26549 -0.0694,-0.29708 0,-0.0316 -0.016,-0.0574 -0.0357,-0.0574 -0.0227,0 -0.0274,0.1353 -0.0129,0.37279 0.0161,0.26293 0.0107,0.38029 -0.0184,0.39823 -0.0226,0.014 -0.0412,0.0186 -0.0412,0.0102 0,-0.0885 -0.0819,-0.40764 -0.11473,-0.44721 -0.0398,-0.048 -0.29011,-0.18999 -0.33488,-0.18999 -0.0112,0 0.007,0.0527 0.0409,0.11703 0.0705,0.13469 0.10872,0.64658 0.0582,0.77914 -0.0277,0.0727 -0.0456,0.0329 -0.11568,-0.25814 -0.073,-0.30319 -0.0998,-0.36051 -0.22523,-0.48207 l -0.14234,-0.13796 0.0256,0.14404 c 0.0141,0.0792 0.0458,0.18455 0.0705,0.23406 0.0731,0.14679 0.0961,0.30974 0.0691,0.49015 l -0.0255,0.16962 -0.0503,-0.0961 c -0.0411,-0.0785 -0.0593,-0.0878 -0.0992,-0.0508 -0.0327,0.0302 -0.0382,0.0654 -0.0167,0.10589 0.0509,0.0959 0.0401,0.10105 -0.0939,0.0451 -0.11249,-0.047 -0.18108,-0.0179 -0.0902,0.0382 0.0197,0.0122 0.0545,0.0571 0.0774,0.0998 0.0405,0.0758 0.0394,0.0763 -0.0472,0.0196 -0.0488,-0.032 -0.14439,-0.0742 -0.21242,-0.0938 -0.068,-0.0196 -0.15609,-0.047 -0.1957,-0.0609 -0.0517,-0.0181 -0.0582,-0.0155 -0.0232,0.01 0.13238,0.0946 -0.24519,0.11989 -0.4223,0.0283 -0.12587,-0.0651 -0.24116,-0.22766 -0.27692,-0.39049 -0.0124,-0.0566 -0.0462,-0.11197 -0.0751,-0.12305 -0.0732,-0.0281 -0.20455,0.10565 -0.26242,0.26727 -0.0267,0.0747 -0.0934,0.20064 -0.14812,0.27986 -0.11219,0.16242 -0.34882,0.39972 -0.37374,0.3748 -0.009,-0.009 0.0313,-0.093 0.0895,-0.18659 l 0.10594,-0.1702 -0.15311,-5.2e-4 c -0.0842,-2.7e-4 -0.17741,-0.0163 -0.20712,-0.0355 -0.0445,-0.0287 -0.045,-0.035 -0.003,-0.0355 0.028,-2.7e-4 0.0434,-0.008 0.0341,-0.0175 -0.009,-0.009 -0.12548,0.0209 -0.25807,0.0673 -0.1326,0.0464 -0.2411,0.0755 -0.2411,0.0648 0,-0.0107 0.0268,-0.0491 0.0596,-0.0853 0.0555,-0.0614 0.0554,-0.0659 -0.003,-0.0659 -0.0341,0 -0.0955,0.0179 -0.13649,0.0399 -0.0671,0.0359 -0.0726,0.0314 -0.0551,-0.045 0.0107,-0.0467 0.008,-0.11571 -0.006,-0.15336 -0.0225,-0.0593 -0.0326,-0.0526 -0.0752,0.0505 -0.0429,0.10351 -0.0527,0.11005 -0.0761,0.0505 -0.0517,-0.13175 -0.0311,-0.42694 0.0409,-0.58553 0.0742,-0.16363 0.0941,-0.32915 0.0395,-0.32915 -0.0627,0 -0.23027,0.26247 -0.26105,0.40881 -0.0762,0.36233 -0.11501,0.47039 -0.14318,0.3985 -0.0479,-0.12205 -0.0339,-0.51157 0.0245,-0.68343 0.0311,-0.0917 0.0488,-0.17448 0.0393,-0.18397 -0.0239,-0.0239 -0.20617,0.075 -0.29793,0.16173 -0.0479,0.0452 -0.0848,0.13895 -0.10007,0.25364 -0.0133,0.10005 -0.0399,0.19162 -0.0591,0.20351 -0.0332,0.0205 -0.045,-0.16542 -0.0389,-0.61281 l 0.003,-0.18004 -0.0858,0.27441 c -0.0517,0.16541 -0.10227,0.45865 -0.12723,0.7382 -0.0228,0.25507 -0.0559,0.56751 -0.0735,0.69429 -0.027,0.1934 -0.0218,0.2507 0.0322,0.35577 l 0.0643,0.12524 0.0459,-0.44579 c 0.0252,-0.24518 0.0598,-0.47009 0.0767,-0.4998 0.0274,-0.048 0.0311,-0.048 0.0336,0 0.002,0.0297 0.0236,0.34866 0.049,0.70879 0.0439,0.62259 0.051,0.66108 0.14417,0.7832 0.0906,0.1188 0.1673,0.16577 0.1656,0.10143 -3.4e-4,-0.0149 -0.0176,-0.14044 -0.0382,-0.27908 -0.0218,-0.1464 -0.0268,-0.403 -0.0121,-0.61216 l 0.0255,-0.36009 0.0622,0.27007 c 0.0342,0.14854 0.0918,0.46088 0.12796,0.69409 0.0496,0.31987 0.0831,0.43927 0.13628,0.48613 0.0681,0.06 0.0696,0.059 0.0451,-0.0279 -0.0622,-0.21999 -0.0936,-0.61733 -0.0697,-0.88223 0.0143,-0.15845 0.0243,-0.29618 0.0221,-0.30608 -0.0353,-0.1601 -0.0444,-0.29636 -0.017,-0.25207 0.0384,0.0619 0.13658,0.50797 0.17038,0.7742 0.0369,0.29054 0.16306,0.80764 0.20311,0.83239 0.0249,0.0154 0.0286,-0.11561 0.0112,-0.40478 -0.0309,-0.51533 0.006,-0.51002 0.1412,0.0201 0.0829,0.3259 0.2595,0.74808 0.29722,0.71036 0.007,-0.007 -0.0261,-0.11642 -0.0735,-0.24325 -0.0731,-0.19586 -0.09,-0.32548 -0.11213,-0.86075 -0.0143,-0.3466 -0.0175,-0.62189 -0.007,-0.61176 0.0198,0.0191 0.1134,0.53118 0.16721,0.91422 0.017,0.12082 0.11364,0.42222 0.21482,0.66979 0.14213,0.34778 0.21621,0.48082 0.3258,0.58515 0.17447,0.16611 0.23711,0.17387 0.14524,0.018 -0.0612,-0.10384 -0.29048,-0.75246 -0.28754,-0.81346 0.002,-0.0422 0.11019,0.11555 0.2022,0.29491 0.0493,0.096 0.0967,0.16745 0.1055,0.15869 0.009,-0.009 -0.0254,-0.1426 -0.076,-0.2974 -0.069,-0.21155 -0.0893,-0.34044 -0.0814,-0.51879 l 0.0105,-0.23732 0.0465,0.16204 c 0.0256,0.0891 0.10293,0.28983 0.17189,0.44602 0.1496,0.33883 0.19533,0.62076 0.16904,1.04216 -0.0116,0.18509 -0.006,0.31229 0.0144,0.31229 0.0187,0 0.071,-0.077 0.11626,-0.17104 z m -0.74241,-1.39112 c -0.10383,-0.13199 -0.15429,-0.39446 -0.12199,-0.63441 l 0.0267,-0.19805 0.0454,0.21606 c 0.0249,0.11883 0.0703,0.30795 0.10074,0.42027 0.0693,0.25556 0.0512,0.32571 -0.0508,0.19613 z m 1.21671,-1.21313 c -0.14669,-0.10626 -0.15167,-0.10732 -0.12697,-0.027 l 0.0257,0.0836 -0.0979,-0.09 c -0.13484,-0.12396 -0.18652,-0.23646 -0.21506,-0.46812 l -0.0244,-0.19805 0.0945,0.16205 c 0.052,0.0891 0.15463,0.22685 0.22806,0.30607 0.34546,0.37268 0.36513,0.41195 0.11601,0.23149 z m -1.35625,-0.72101 c 0.32424,0.009 0.37989,-0.0111 0.38128,-0.13605 3.4e-4,-0.0399 -0.01,-0.0408 -0.0535,-0.005 -0.0905,0.0751 -0.0665,-0.0384 0.0569,-0.2697 l 0.1109,-0.20781 -0.20069,0.0166 -0.2007,0.0166 0.18883,-0.11097 c 0.17392,-0.10222 0.21494,-0.11097 0.5199,-0.11097 0.32836,0 0.33214,0.001 0.45859,0.12358 0.0701,0.068 0.12277,0.12828 0.117,0.13406 -0.006,0.006 -0.0719,-0.006 -0.14687,-0.0272 -0.075,-0.0207 -0.14441,-0.0297 -0.15419,-0.0199 -0.01,0.01 0.0241,0.0894 0.0754,0.17683 0.0513,0.0875 0.0932,0.19605 0.0932,0.2413 0,0.0731 -0.007,0.0768 -0.0626,0.0329 -0.0589,-0.0465 -0.0592,-0.0441 -0.005,0.0406 0.0317,0.0495 0.0941,0.0954 0.13861,0.10205 0.0528,0.008 0.0722,-0.002 0.0559,-0.0285 -0.0169,-0.0274 0.002,-0.0339 0.059,-0.0201 0.0462,0.0112 0.19299,0.0332 0.32614,0.0489 l 0.24211,0.0285 -0.0225,-0.0894 c -0.0179,-0.0714 -0.011,-0.085 0.0342,-0.0677 0.0508,0.0195 0.0513,0.009 0.005,-0.10095 -0.0748,-0.17895 -0.0633,-0.21176 0.0443,-0.12712 0.11577,0.0911 0.1487,0.0725 0.0702,-0.0396 -0.0317,-0.0453 -0.0577,-0.12557 -0.0577,-0.17839 0,-0.14 -0.0919,-0.2205 -0.40292,-0.35273 l -0.27688,-0.11775 -0.19678,0.0572 c -0.24526,0.0713 -0.41853,0.0717 -0.84823,0.002 -0.39855,-0.0646 -0.51372,-0.0403 -0.72853,0.15374 -0.0932,0.0842 -0.13976,0.15729 -0.14061,0.22071 -5.2e-4,0.0522 -0.0244,0.13535 -0.0527,0.18486 -0.0768,0.13432 -0.0645,0.16648 0.0297,0.078 0.10982,-0.10318 0.14243,-0.0637 0.0769,0.0931 -0.0648,0.15513 -0.0648,0.1555 0.002,0.13008 0.0663,-0.0255 0.0724,0.0613 0.009,0.12786 -0.0368,0.0387 -0.0286,0.0421 0.045,0.0192 0.0495,-0.0155 0.23418,-0.0242 0.41037,-0.0195 z m -0.26309,-1.12626 c 0.35718,-0.12479 0.57341,-0.22797 0.39286,-0.18745 -0.0495,0.0111 -0.27458,0.0471 -0.50014,0.0799 -0.38362,0.0558 -0.42667,0.0557 -0.66618,-0.002 -0.14083,-0.0335 -0.32087,-0.0928 -0.40009,-0.13188 -0.0875,-0.0431 -0.10871,-0.063 -0.054,-0.0507 0.68182,0.15397 0.76394,0.16373 1.07525,0.12776 0.17111,-0.0198 0.38403,-0.0607 0.47316,-0.091 0.0891,-0.0303 0.12153,-0.0484 0.072,-0.0403 -0.0495,0.008 -0.18725,0.0241 -0.30608,0.0356 l -0.21606,0.0208 0.21701,-0.0648 c 0.31862,-0.0952 0.80926,-0.29866 0.80926,-0.33555 0,-0.0407 -0.01,-0.0401 -0.13252,0.007 -0.10672,0.0405 -0.59886,0.14087 -0.61529,0.12539 -0.005,-0.005 0.1284,-0.0624 0.29708,-0.12762 0.16868,-0.0652 0.30669,-0.13057 0.30669,-0.14523 0,-0.0635 -0.15206,-0.0554 -0.41721,0.0223 -0.54424,0.15946 -1.20447,0.27653 -1.41793,0.25145 -0.20556,-0.0242 -0.4764,-0.15705 -0.53899,-0.26446 -0.0498,-0.0855 -0.0502,0.002 -0.001,0.17963 0.0938,0.33773 0.4903,0.56568 0.98867,0.5684 0.24287,0.002 0.32577,0.0542 0.15971,0.1019 l -0.12369,0.0355 0.12603,0.003 c 0.0693,0.002 0.28143,-0.0514 0.47136,-0.11777 z m -0.98831,-0.36944 c -0.23805,-0.0731 -0.19842,-0.0879 0.0803,-0.03 0.12624,0.0262 0.345,0.041 0.48613,0.0328 0.17667,-0.0103 0.22857,-0.005 0.16659,0.0169 -0.1414,0.0501 -0.54085,0.0394 -0.733,-0.0197 z m 3.54174,0.44526 -0.16205,-0.0378 0.34439,-0.045 c 0.40184,-0.0525 0.58154,-0.11931 0.74929,-0.27847 0.12757,-0.12104 0.25454,-0.35538 0.25588,-0.47229 5.2e-4,-0.0539 -0.0289,-0.0369 -0.13473,0.0778 -0.18528,0.2007 -0.31672,0.22518 -0.85473,0.15923 -0.31338,-0.0384 -0.60141,-0.10658 -0.93289,-0.22077 -0.225,-0.0775 -0.48949,-0.0977 -0.48949,-0.0373 0,0.0198 0.0206,0.036 0.0457,0.036 0.0251,0 0.15884,0.0567 0.29708,0.12599 0.13825,0.0693 0.21894,0.11825 0.17933,0.10881 -0.1054,-0.0251 -0.64508,-0.12695 -0.66617,-0.12567 -0.0943,0.006 0.50174,0.2426 0.7742,0.30773 l 0.21606,0.0516 -0.30608,-0.0156 -0.30608,-0.0156 0.16204,0.051 c 0.0891,0.028 0.29446,0.0704 0.4563,0.0942 0.26298,0.0386 0.3338,0.0353 0.66618,-0.0316 0.20455,-0.0412 0.40432,-0.0861 0.44393,-0.0998 0.0674,-0.0233 0.0679,-0.0216 0.009,0.027 -0.0347,0.0286 -0.1796,0.0887 -0.32204,0.13369 -0.22572,0.0712 -0.31008,0.0793 -0.65712,0.0628 -0.21898,-0.0104 -0.43056,-0.03 -0.47017,-0.0435 -0.059,-0.0201 -0.0617,-0.0178 -0.0146,0.0128 0.0931,0.0606 0.65353,0.21647 0.77083,0.21437 0.0888,-0.002 0.0792,-0.009 -0.054,-0.0398 z m -0.26107,-0.40815 c -0.0941,-0.0289 -0.17105,-0.0587 -0.17105,-0.0662 0,-0.007 0.25785,-0.011 0.57301,-0.008 0.31516,0.003 0.568,0.0108 0.56187,0.017 -0.006,0.006 -0.0979,0.0344 -0.20391,0.0626 -0.24277,0.0646 -0.53898,0.0625 -0.75992,-0.005 z m -1.17876,0.30068 c 3.3e-4,-0.0326 0.009,-0.0313 0.032,0.005 0.0198,0.0312 0.0496,0.0383 0.0805,0.0191 0.027,-0.0168 0.084,-0.026 0.12662,-0.0205 0.16522,0.0213 0.10665,-0.057 -0.0947,-0.12655 l -0.21149,-0.0731 -0.21879,0.0717 c -0.20504,0.0672 -0.28696,0.13369 -0.16479,0.13369 0.0297,0 0.054,-0.0174 0.054,-0.0386 0,-0.0212 0.0255,-0.0131 0.0566,0.018 0.0687,0.0687 0.33926,0.0779 0.34007,0.0116 z m -0.51444,-0.30083 c -0.012,-0.012 -0.043,-0.0132 -0.069,-0.003 -0.0287,0.0115 -0.0202,0.0201 0.0218,0.0218 0.038,0.002 0.0592,-0.007 0.0473,-0.0189 z m -1.6745,-0.36534 c 0.007,-0.0346 5.2e-4,-0.11974 -0.0145,-0.18905 -0.0154,-0.0693 -0.0284,-0.21111 -0.0288,-0.31509 -5.2e-4,-0.12477 -0.0151,-0.18599 -0.0429,-0.18004 -0.0231,0.005 -0.0847,-0.10455 -0.13685,-0.24334 -0.0522,-0.13878 -0.12064,-0.30083 -0.15216,-0.36009 -0.0315,-0.0593 -0.0742,-0.14827 -0.0948,-0.19778 -0.0669,-0.16065 -0.0463,0.45382 0.027,0.80414 0.0365,0.17491 0.0593,0.34528 0.0506,0.37861 -0.009,0.0333 2.7e-4,0.10088 0.0199,0.15011 0.0282,0.0707 0.0367,0.0253 0.0405,-0.21657 l 0.005,-0.30608 0.0531,0.14403 c 0.0292,0.0792 0.06,0.24127 0.0684,0.3601 0.008,0.11883 0.0158,0.2201 0.0164,0.22506 5.2e-4,0.005 0.0404,0.009 0.0885,0.009 0.0541,0 0.0925,-0.024 0.10086,-0.063 z m 4.42097,-0.0972 c 0,-0.18668 0.0648,-0.51521 0.10676,-0.54114 0.0159,-0.01 0.0206,0.085 0.0106,0.21083 -0.0108,0.13506 -0.003,0.2565 0.0211,0.29661 0.0345,0.0594 0.0396,0.0532 0.0405,-0.0491 5.2e-4,-0.0643 0.0268,-0.26624 0.0583,-0.44862 0.0367,-0.2128 0.0484,-0.40241 0.0325,-0.52926 l -0.0247,-0.19767 -0.0675,0.0881 c -0.0371,0.0485 -0.11148,0.20795 -0.16527,0.35439 -0.0732,0.19932 -0.10393,0.24911 -0.12214,0.19805 -0.0252,-0.0708 -0.0443,0.0433 -0.0896,0.53496 l -0.0224,0.24306 h 0.1109 c 0.10724,0 0.11089,-0.005 0.11089,-0.16027 z m -3.64305,0.0207 c 0.0338,-0.0214 0.0126,-0.0387 -0.072,-0.0588 -0.10292,-0.0244 -0.0765,-0.0328 0.18615,-0.0593 0.38381,-0.0387 0.3961,-0.0437 0.3961,-0.15964 0,-0.0634 0.0486,-0.14403 0.14492,-0.24031 0.0797,-0.0797 0.15375,-0.13609 0.16455,-0.12528 0.0108,0.0108 -0.0139,0.0854 -0.0549,0.16572 -0.0965,0.18915 -0.094,0.22098 0.0176,0.22098 0.0621,0 0.0835,-0.014 0.0656,-0.0429 -0.0318,-0.0515 0.21492,0.0943 0.35811,0.21159 0.056,0.0458 0.11521,0.0834 0.13162,0.0834 0.0164,0 0.0954,-0.0548 0.17559,-0.12176 0.11243,-0.0939 0.17991,-0.12223 0.29527,-0.12383 0.0822,-0.001 0.15527,-0.008 0.16227,-0.0148 0.007,-0.007 -0.0264,-0.0971 -0.0742,-0.20026 -0.0478,-0.10333 -0.0696,-0.18752 -0.0483,-0.18752 0.0212,0 0.1015,0.0629 0.17839,0.13979 0.0998,0.0998 0.13981,0.17049 0.13981,0.24705 0,0.1025 0.008,0.10826 0.18904,0.12996 0.10398,0.0125 0.26197,0.0231 0.35109,0.0236 0.11798,5.2e-4 0.14736,0.0103 0.10803,0.0358 -0.0297,0.0192 -0.0945,0.0354 -0.14404,0.036 -0.0714,5.2e-4 -0.0789,0.008 -0.036,0.036 0.0297,0.0192 0.1134,0.0352 0.18599,0.0355 0.11219,3.4e-4 0.15403,-0.0245 0.27907,-0.16656 0.12572,-0.14283 0.1471,-0.19074 0.1471,-0.32967 0,-0.16027 -0.001,-0.16163 -0.072,-0.0974 -0.15295,0.13842 -0.0743,-0.0698 0.1635,-0.43273 0.12954,-0.19771 0.24155,-0.39189 0.24892,-0.4315 0.007,-0.0396 0.0328,-0.1619 0.0566,-0.27176 0.0549,-0.25396 0.0326,-0.77435 -0.0393,-0.91655 -0.0353,-0.0699 -0.0793,-0.10577 -0.12456,-0.10162 -0.10653,0.01 -0.12388,-0.0491 -0.12448,-0.42232 -3.4e-4,-0.21877 -0.0163,-0.35961 -0.0438,-0.3871 -0.0759,-0.0759 -0.42407,-0.0495 -0.65897,0.0501 -0.11884,0.0503 -0.30519,0.12381 -0.41411,0.16323 -0.25642,0.0928 -0.98433,0.15757 -1.35543,0.12064 l -0.283,-0.0281 0.16204,-0.0435 c 0.0969,-0.026 0.14033,-0.0516 0.10803,-0.0636 -0.49909,-0.1854 -0.87114,-0.27781 -1.11848,-0.27781 -0.16093,0 -0.29722,0.0184 -0.33355,0.045 -0.0975,0.0715 -0.24776,0.54538 -0.21993,0.69374 0.0202,0.10766 0.009,0.13903 -0.0821,0.22434 -0.21346,0.20041 -0.2408,0.2755 -0.23095,0.63436 0.01,0.36369 -0.0255,0.28471 0.46349,1.03396 0.10388,0.15919 0.19948,0.33309 0.21245,0.38643 0.0235,0.0968 0.0234,0.0968 -0.0538,0.0284 l -0.0774,-0.0686 v 0.18104 c 0,0.1683 0.0113,0.1915 0.16124,0.32967 0.16049,0.14793 0.29807,0.18735 0.40882,0.11714 z m 1.58337,-1.10582 c -0.004,-0.0974 -0.008,-0.25265 -0.009,-0.34506 -0.001,-0.0924 -0.0144,-0.18052 -0.0296,-0.1958 -0.0599,-0.0599 0.77366,-0.32385 1.18005,-0.37369 0.2426,-0.0298 0.25943,-0.0267 0.44814,0.0809 0.20048,0.11432 0.19811,0.17225 -0.004,0.10174 -0.0619,-0.0216 -0.14668,-0.0382 -0.18829,-0.0368 -0.0741,0.003 -0.0742,0.003 -0.004,0.033 0.0396,0.0168 0.10443,0.0411 0.14404,0.054 0.0671,0.0218 0.0677,0.0258 0.009,0.059 -0.0348,0.0195 -0.0857,0.089 -0.11296,0.15427 -0.0739,0.17701 -0.24532,0.2815 -0.50374,0.30716 -0.20486,0.0203 -0.21432,0.0251 -0.13607,0.069 0.13185,0.0739 0.0722,0.0824 -0.141,0.02 -0.11222,-0.0328 -0.24538,-0.1051 -0.3133,-0.17005 -0.16126,-0.1542 -0.23404,-0.10752 -0.26436,0.16955 -0.0288,0.26337 -0.0656,0.29923 -0.0748,0.0728 z m 1.13864,-0.4567 c 0.16165,-0.0921 0.19521,-0.1511 0.10545,-0.18555 -0.0436,-0.0167 -0.0873,0.008 -0.14501,0.0815 -0.12962,0.16562 -0.28752,0.17646 -0.48779,0.0334 -0.0464,-0.0331 -0.0724,-0.034 -0.10299,-0.003 -0.0306,0.0306 -0.015,0.0551 0.062,0.0968 0.15174,0.0822 0.40137,0.0722 0.56832,-0.0229 z m -0.12323,-0.17046 c 0,-0.0198 -0.0243,-0.036 -0.054,-0.036 -0.0297,0 -0.054,0.0162 -0.054,0.036 0,0.0198 0.0243,0.036 0.054,0.036 0.0297,0 0.054,-0.0162 0.054,-0.036 z m -1.58442,0.59179 c 0,-0.17643 -0.0487,-0.30371 -0.11632,-0.30371 -0.023,0 -0.0858,0.0421 -0.13952,0.0936 -0.0538,0.0515 -0.20859,0.13181 -0.34406,0.17846 l -0.24632,0.0848 0.10803,-0.0883 0.10803,-0.0883 -0.18005,-2.7e-4 c -0.22657,-2.7e-4 -0.40786,-0.0899 -0.51006,-0.25219 -0.0437,-0.0693 -0.10374,-0.15338 -0.1335,-0.1868 -0.0494,-0.0555 -0.0411,-0.0654 0.0967,-0.11418 0.0946,-0.0335 0.12262,-0.0545 0.0751,-0.0563 -0.0416,-0.002 -0.12573,0.0146 -0.18693,0.0359 -0.0612,0.0213 -0.14827,0.0335 -0.19348,0.027 -0.0661,-0.009 -0.0375,-0.0355 0.14593,-0.13308 0.21687,-0.11529 0.24086,-0.12012 0.48519,-0.0977 l 0.25705,0.0236 -0.19805,-0.0946 c -0.19821,-0.0947 -0.32092,-0.10097 -0.64817,-0.0332 -0.0495,0.0102 0.007,-0.0214 0.12603,-0.0703 0.11883,-0.0489 0.26892,-0.0898 0.33352,-0.0908 0.1226,-0.002 0.90752,0.1917 1.01908,0.25141 0.1116,0.0597 0.22207,0.2235 0.17175,0.2546 -0.0579,0.0358 0.12506,0.0832 0.22269,0.0577 0.13533,-0.0354 0.0638,0.0959 -0.0826,0.15158 -0.0777,0.0296 -0.0971,0.0586 -0.0917,0.13728 0.0149,0.21714 -0.008,0.47793 -0.0424,0.47793 -0.0198,0 -0.036,-0.074 -0.036,-0.16441 z m -0.51839,-0.39298 c 0.0701,-0.0293 0.11724,-0.0698 0.10475,-0.09 -0.028,-0.0454 -0.16251,-0.0489 -0.16251,-0.004 0,0.0178 -0.0486,0.0494 -0.10803,0.0702 -0.13176,0.0459 -0.30835,-0.006 -0.36212,-0.10642 -0.0329,-0.0614 -0.14201,-0.0982 -0.14201,-0.0479 0,0.0589 0.0864,0.16765 0.1554,0.19543 0.12337,0.0497 0.37475,0.0414 0.51452,-0.017 z m -0.1699,-0.20135 c -0.0578,-0.0357 -0.0841,-0.0168 -0.051,0.0368 0.0133,0.0214 0.0409,0.0286 0.0615,0.0159 0.0242,-0.015 0.0205,-0.0335 -0.0105,-0.0526 z m 1.3943,-0.17132 c -0.0123,-0.0199 0.0182,-0.0843 0.0678,-0.14324 0.0888,-0.10559 0.19241,-0.14134 0.75654,-0.26121 0.14426,-0.0306 0.37864,-0.0101 0.37749,0.0332 -10e-4,0.0408 -0.36804,0.18311 -0.71958,0.2791 -0.18814,0.0514 -0.36862,0.10127 -0.40104,0.11085 -0.0324,0.01 -0.069,0.002 -0.0813,-0.0187 z m -3.31366,1.2154 c -0.0133,-0.10052 -0.0584,-0.26662 -0.10025,-0.36909 -0.0933,-0.2286 -0.12433,-0.7972 -0.0418,-0.76554 0.0684,0.0262 0.0637,-0.11989 -0.008,-0.23199 -0.0311,-0.0489 0.009,-0.0168 0.0885,0.0716 0.0798,0.0883 0.15165,0.19365 0.15969,0.23406 0.008,0.0404 0.0168,-0.0276 0.0195,-0.15114 l 0.005,-0.22461 -0.14678,-0.0926 c -0.22843,-0.14421 -0.23501,-0.14357 -0.27791,0.0269 -0.12319,0.48942 -0.12302,0.47154 -0.007,0.78522 0.0836,0.22671 0.10797,0.35257 0.10797,0.55744 0,0.2559 0.003,0.26581 0.099,0.30078 0.0545,0.0199 0.10516,0.0374 0.11266,0.039 0.008,0.002 0.003,-0.0794 -0.0106,-0.17994 z m 6.04076,-0.11725 c -0.0179,-0.19374 -0.005,-0.26119 0.098,-0.52819 l 0.1185,-0.30608 -0.0569,-0.33566 c -0.0313,-0.18462 -0.065,-0.34374 -0.0748,-0.3536 -0.0267,-0.0267 -0.28547,0.11294 -0.35809,0.19324 -0.0513,0.0567 -0.064,0.14347 -0.0679,0.46295 -0.003,0.21624 -5.2e-4,0.44178 0.005,0.5012 0.008,0.0951 0.0134,0.0887 0.0428,-0.054 0.0421,-0.20411 0.0441,-0.27498 0.0129,-0.43211 -0.0219,-0.11 -0.008,-0.14779 0.10868,-0.29708 0.0736,-0.0941 0.14899,-0.17104 0.16758,-0.17104 0.0186,0 2.7e-4,0.0427 -0.0408,0.0949 -0.0857,0.10898 -0.10111,0.2371 -0.0249,0.20788 0.0384,-0.0147 0.0534,0.0369 0.066,0.22619 0.0134,0.20223 -0.002,0.29855 -0.0857,0.54908 -0.0561,0.16711 -0.10197,0.35667 -0.10197,0.42124 0,0.11441 0.003,0.11646 0.1064,0.0803 0.10573,-0.0369 0.10627,-0.0385 0.0859,-0.2592 z m -0.31592,-1.68508 c 0.10069,-0.19472 0.0486,-0.22636 -0.057,-0.0347 -0.0591,0.10714 -0.10738,0.2023 -0.10738,0.21146 0,0.0403 0.11751,-0.0861 0.16442,-0.17679 z m -0.097,-0.15907 c 0.14587,-0.30536 0.14234,-0.32982 -0.0125,-0.0867 -0.10661,0.16734 -0.1612,0.32241 -0.1135,0.32241 0.007,0 0.0641,-0.10605 0.12603,-0.23568 z m -0.0495,-0.30446 c 0.0698,-0.13863 0.12003,-0.25206 0.11158,-0.25206 -0.0178,0 -0.27363,0.45146 -0.27363,0.48297 0,0.0637 0.0485,-0.005 0.16205,-0.23091 z m -0.0722,-0.53969 c 0.30994,-0.61887 0.35578,-0.75652 0.0841,-0.25251 -0.10143,0.18814 -0.23815,0.42971 -0.30381,0.5368 -0.10288,0.16782 -0.12559,0.2554 -0.0662,0.2554 0.009,0 0.13729,-0.24286 0.28596,-0.53969 z m 0.0145,0.29662 c 0.0425,-0.0842 0.0691,-0.15303 0.0592,-0.15303 -0.0205,0 -0.16351,0.27175 -0.16351,0.31064 0,0.0395 0.0208,0.008 0.10433,-0.15761 z m -5.09118,0.0623 c 0.0125,-0.0202 -0.019,-0.0863 -0.0699,-0.1468 l -0.0926,-0.11006 v 0.10359 c 0,0.14429 0.10616,0.24442 0.1625,0.15327 z m 0.0536,-0.19174 c 0,-0.007 -0.0365,-0.0433 -0.081,-0.081 l -0.081,-0.0686 0.0686,0.081 c 0.0645,0.0761 0.0935,0.0974 0.0935,0.0686 z m 3.26147,-0.18525 c 0.20553,-0.12045 0.61132,-0.22623 1.03599,-0.27004 0.44957,-0.0464 0.54295,-0.0941 0.15644,-0.08 -0.39236,0.0144 -0.84264,0.10175 -1.19505,0.23192 -0.23277,0.086 -0.3261,0.10295 -0.48612,0.0884 -0.16965,-0.0154 -0.56473,-0.12511 -0.81022,-0.22496 -0.0619,-0.0251 -0.0656,-0.0214 -0.0266,0.0266 0.0405,0.0499 0.0257,0.0523 -0.13758,0.0227 -0.10063,-0.0183 -0.23448,-0.0279 -0.29746,-0.0213 -0.0973,0.0102 -0.0821,0.019 0.10157,0.0591 0.11883,0.0259 0.33788,0.0863 0.48677,0.13419 0.14889,0.0479 0.29879,0.087 0.33309,0.087 0.0343,0 0.0624,0.0186 0.0624,0.0413 0,0.0298 0.0876,0.0346 0.31321,0.0173 0.2371,-0.0182 0.34976,-0.0455 0.46361,-0.11221 z m -3.16302,-0.008 c 0.007,-0.0213 -0.0272,-0.0851 -0.0763,-0.14178 -0.0685,-0.0791 -0.0992,-0.0932 -0.13214,-0.0608 -0.0332,0.0326 -0.0247,0.0678 0.0372,0.15481 0.0776,0.10901 0.14455,0.12767 0.1712,0.0478 z m 4.92958,-0.3961 c -0.0176,-0.0176 -0.13251,0.22514 -0.12916,0.27276 5.2e-4,0.0124 0.0345,-0.0397 0.0746,-0.11582 0.0402,-0.0761 0.0647,-0.14676 0.0545,-0.15694 z m -4.03777,0.0628 c -0.4622,-0.1923 -0.58708,-0.21819 -0.27907,-0.0579 0.0941,0.0489 0.21155,0.0888 0.26106,0.0884 0.0817,-5.2e-4 0.0834,-0.003 0.018,-0.0305 z m 2.23258,-0.10744 c 0.10479,-0.0217 0.0214,-0.0295 -0.30608,-0.0288 -0.29401,5.2e-4 -0.40016,0.01 -0.30608,0.0267 0.20222,0.0362 0.44317,0.037 0.61216,0.002 z m 0.33309,-0.0629 c -0.0346,-0.009 -0.0914,-0.009 -0.12604,0 -0.0346,0.009 -0.006,0.0165 0.063,0.0165 0.0693,0 0.0977,-0.007 0.063,-0.0165 z m 0.19805,-0.0351 c -0.0248,-0.01 -0.0653,-0.01 -0.09,0 -0.0248,0.01 -0.005,0.0181 0.045,0.0181 0.0495,0 0.0698,-0.008 0.045,-0.0181 z m -3.63115,-0.18828 c -0.13883,-0.0847 -0.26687,-0.24436 -0.26687,-0.33287 0,-0.0798 0.0311,-0.0843 0.12702,-0.0183 0.2057,0.14138 0.93044,0.27479 1.4934,0.27491 0.35745,6e-5 0.86331,-0.0698 1.17031,-0.1616 0.16924,-0.0506 0.13358,-0.0528 -0.59415,-0.0358 -0.6419,0.0149 -0.82959,0.007 -1.09829,-0.0447 l -0.32409,-0.0628 0.46812,-0.0223 c 0.61042,-0.029 1.39906,-0.14053 0.99414,-0.14053 -0.0639,0 -0.10704,-0.0148 -0.0959,-0.0328 0.0112,-0.0181 -0.12075,-0.0435 -0.29495,-0.0566 -0.45749,-0.0346 -0.44453,-0.0407 0.15293,-0.0713 0.29707,-0.0152 0.61305,-0.0381 0.70218,-0.0509 0.15485,-0.0222 0.14714,-0.0254 -0.1737,-0.0712 -0.18466,-0.0264 -0.32751,-0.0562 -0.31745,-0.0663 0.0249,-0.0248 1.05218,-0.0973 1.40938,-0.0994 0.15845,-0.001 0.37721,0.0106 0.48614,0.0256 0.23482,0.0324 0.18979,-0.005 -0.14404,-0.11827 -0.21998,-0.0749 -0.27742,-0.0785 -0.95426,-0.0604 -0.4386,0.0118 -0.66386,0.007 -0.57615,-0.0116 0.0792,-0.017 0.20886,-0.0331 0.28808,-0.0359 l 0.14404,-0.005 -0.10325,-0.0456 -0.10325,-0.0456 0.17129,-0.0235 c 0.47267,-0.0648 1.11031,0.0209 1.5891,0.21357 0.31222,0.12563 0.48064,0.23824 0.48064,0.32138 0,0.0229 0.0555,0.10521 0.12339,0.18277 l 0.12338,0.14104 -0.0301,-0.1374 c -0.0358,-0.16333 -0.19064,-0.39732 -0.32741,-0.49471 -0.0983,-0.07 -0.55937,-0.2874 -0.6038,-0.28469 -0.013,5.2e-4 0.0223,0.0264 0.0786,0.0568 0.17681,0.0958 0.0753,0.0967 -0.21696,0.002 -0.15474,-0.0502 -0.40288,-0.11022 -0.55142,-0.13341 -0.14854,-0.0232 -0.3673,-0.0646 -0.48613,-0.092 -0.11883,-0.0274 -0.31328,-0.0479 -0.43211,-0.0456 -0.18365,0.004 -0.19715,0.008 -0.09,0.0291 l 0.12604,0.0249 -0.10803,0.0271 c -0.24366,0.0611 -0.59416,0.16867 -0.59416,0.1824 0,0.008 0.0608,0.007 0.13504,-0.003 0.12322,-0.0159 0.11457,-0.008 -0.099,0.0945 -0.15141,0.0724 -0.39787,0.14293 -0.69799,0.19971 -0.5377,0.10171 -0.66638,0.1076 -0.76251,0.0349 -0.10824,-0.0819 -0.13091,-0.0651 -0.0703,0.052 0.0577,0.11163 0.23058,0.18078 0.59165,0.23668 0.30712,0.0475 0.0616,0.0875 -0.32522,0.0529 -0.40779,-0.0365 -0.68642,-0.10667 -0.78795,-0.19855 -0.0869,-0.0786 -0.10834,-0.0358 -0.1307,0.26086 -0.0144,0.19093 -0.004,0.27002 0.0471,0.36843 0.0857,0.16413 0.27571,0.28883 0.43985,0.28866 l 0.12971,-1.4e-4 -0.11122,-0.0678 z m 3.78627,-0.1806 c -0.0333,-0.0539 -0.35995,-0.0833 -0.58423,-0.0526 l -0.21006,0.0287 0.14404,0.0231 c 0.22758,0.0365 0.67269,0.037 0.65025,5.2e-4 z m 1.2363,-0.30486 -0.004,-0.14863 -0.0303,0.15359 c -0.0166,0.0845 -0.0423,0.1736 -0.057,0.19805 -0.0175,0.0292 -0.006,0.0275 0.0342,-0.005 0.0409,-0.0332 0.0596,-0.0983 0.057,-0.19806 z m -0.39216,0.019 c 0,-0.0528 -0.12265,-0.14421 -0.29686,-0.22127 -0.15481,-0.0685 -0.74741,-0.14724 -0.74741,-0.0993 0,0.0108 0.11748,0.0463 0.26107,0.0788 0.14358,0.0325 0.36639,0.10539 0.49512,0.16204 0.26333,0.11587 0.28808,0.12273 0.28808,0.0798 z m -3.94754,10.34713 c 0.0375,-0.21213 0.22146,-0.81769 0.22965,-0.7562 0.005,0.0396 -0.0471,0.24216 -0.11641,0.45011 -0.0693,0.20796 -0.12025,0.3457 -0.11324,0.30609 z m 3.33632,-0.34437 c -0.064,-0.2191 -0.10664,-0.40816 -0.0947,-0.4201 0.012,-0.012 0.022,-0.007 0.0224,0.0113 2.7e-4,0.0181 0.0556,0.2072 0.12277,0.42011 0.0672,0.21291 0.10954,0.3871 0.0941,0.3871 -0.0155,0 -0.0805,-0.17927 -0.14451,-0.39838 z m -3.96088,0.19206 c -5.2e-4,-0.0244 0.0624,-0.20262 0.14003,-0.39611 0.21673,-0.54026 0.25778,-0.6311 0.27663,-0.61223 0.01,0.01 -0.0658,0.22605 -0.16745,0.48101 -0.19643,0.4925 -0.24741,0.60036 -0.24921,0.52733 z m 4.54444,-0.0457 c -0.02,-0.0495 -0.111,-0.27568 -0.20235,-0.50257 -0.17399,-0.43217 -0.21099,-0.57484 -0.0938,-0.36166 0.11318,0.20586 0.3653,0.86615 0.3482,0.91192 -0.009,0.0233 -0.0322,0.002 -0.0521,-0.0477 z m -5.03599,-0.19855 c 0.0421,-0.14016 0.57622,-1.11056 0.58944,-1.0709 0.007,0.0221 -0.1103,0.27217 -0.26147,0.55576 -0.26735,0.50155 -0.37437,0.66967 -0.32797,0.51514 z m 5.34021,-0.57963 c -0.30232,-0.55829 -0.42203,-0.85668 -0.20512,-0.5113 0.19692,0.31355 0.54698,1.00064 0.53228,1.04473 -0.008,0.0241 -0.15525,-0.21597 -0.32716,-0.53343 z m -5.89403,0.25675 c 0,-0.0348 0.72874,-1.11737 0.75998,-1.12901 0.0653,-0.0243 0.0265,0.0462 -0.23184,0.42103 -0.14524,0.21075 -0.30883,0.46015 -0.36352,0.55423 -0.0837,0.14406 -0.16462,0.21959 -0.16462,0.15375 z m 6.27301,-0.54884 c -0.20336,-0.30793 -0.36097,-0.56866 -0.35023,-0.57939 0.0272,-0.0272 0.0884,0.0541 0.42843,0.56938 0.36935,0.5596 0.35325,0.53175 0.31964,0.55251 -0.0155,0.01 -0.19447,-0.23458 -0.39784,-0.5425 z m -6.69876,0.23166 c 0.0188,-0.0751 0.94669,-1.20686 0.96036,-1.17143 0.007,0.0178 -0.009,0.062 -0.036,0.0982 -0.12748,0.17328 -0.90438,1.11962 -0.91916,1.11962 -0.009,0 -0.0116,-0.0209 -0.005,-0.0464 z m 7.08649,-0.65832 c -0.26072,-0.30838 -0.46411,-0.57062 -0.45198,-0.58276 0.0121,-0.0121 0.0351,-0.007 0.051,0.0116 0.0159,0.0185 0.20476,0.24426 0.41963,0.50173 0.21487,0.25747 0.42314,0.50458 0.46283,0.54914 0.0397,0.0446 0.0542,0.081 0.0324,0.081 -0.0219,0 -0.25315,-0.25231 -0.51387,-0.56069 z m -7.56097,0.20917 c 0,-0.0151 0.25927,-0.28632 0.57615,-0.60274 0.31688,-0.31642 0.57615,-0.55099 0.57615,-0.52128 0,0.0531 -1.07379,1.15144 -1.12572,1.15144 -0.0146,0 -0.0266,-0.0123 -0.0266,-0.0274 z m 7.85864,-0.55812 c -0.32161,-0.32206 -0.58474,-0.6095 -0.58474,-0.63878 0,-0.0293 0.27547,0.2219 0.61216,0.55815 0.33669,0.33625 0.61216,0.6237 0.61216,0.63878 0,0.0702 -0.094,-0.0118 -0.63958,-0.55815 z m -8.23895,0.19301 c 0.0551,-0.0892 1.60462,-1.3653 1.60462,-1.32151 0,0.028 -0.26331,0.26582 -0.58515,0.52846 -0.32183,0.26263 -0.66925,0.55581 -0.77204,0.6515 -0.16465,0.15328 -0.30392,0.23296 -0.24743,0.14155 z m 8.62646,-0.60143 c -0.32678,-0.2678 -0.68694,-0.55106 -0.80034,-0.62946 -0.17704,-0.12239 -0.32666,-0.28507 -0.26218,-0.28507 0.0192,0 1.59795,1.25172 1.70941,1.35534 0.0463,0.043 0.0463,0.0488 0,0.0476 -0.029,-5.2e-4 -0.3201,-0.22058 -0.64689,-0.48838 z m -8.96506,0.044 c 0.13675,-0.12898 1.84215,-1.25022 1.88101,-1.2367 0.0243,0.008 -0.27177,0.22335 -0.65797,0.4775 -0.38621,0.25417 -0.80443,0.54015 -0.9294,0.63552 -0.12496,0.0954 -0.25402,0.17341 -0.28678,0.17341 -0.0521,0 -0.053,-0.006 -0.007,-0.0497 z m 8.98307,-0.58353 c -0.51493,-0.34771 -0.96042,-0.64603 -0.98996,-0.66294 -0.0296,-0.0169 -0.0449,-0.0396 -0.0342,-0.0503 0.0198,-0.0198 2.01439,1.29583 2.01439,1.32868 0,0.0469 -0.1179,-0.0264 -0.99026,-0.61545 z m -9.271144,0.15242 c 0.0831,-0.0768 1.909094,-1.07769 1.929274,-1.05751 0.0304,0.0304 -0.15564,0.14288 -0.84445,0.51066 -0.36319,0.19392 -0.75114,0.40726 -0.86211,0.47408 -0.205824,0.12395 -0.317634,0.16048 -0.222714,0.0728 z m 10.278834,-0.20772 c -0.13832,-0.0816 -0.63166,-0.34107 -1.09632,-0.57655 -0.81316,-0.41209 -0.93324,-0.48061 -0.89923,-0.51303 0.0144,-0.0137 2.28632,1.1741 2.33068,1.21846 0.0107,0.0107 -0.004,0.0195 -0.0321,0.0195 -0.0284,0 -0.16475,-0.0668 -0.30307,-0.14842 z m -10.598314,-0.37361 c 0.0373,-0.0373 1.058574,-0.45016 1.110234,-0.44879 0.0835,0.003 -0.0836,0.083 -0.58726,0.28395 -0.413544,0.16499 -0.573564,0.21543 -0.522974,0.16484 z m 10.544874,-0.18279 c -0.24757,-0.10961 -0.53924,-0.23412 -0.64817,-0.27667 -0.11542,-0.0451 -0.17264,-0.0828 -0.13715,-0.0903 0.0335,-0.007 0.17123,0.0351 0.30607,0.0938 0.13486,0.0587 0.43154,0.18298 0.6593,0.27613 0.22775,0.0931 0.42086,0.17574 0.42911,0.18354 0.008,0.008 -0.0242,0.0138 -0.072,0.0135 -0.0479,-3.4e-4 -0.28958,-0.0904 -0.53714,-0.19999 z m -10.588634,-0.36014 c 0.0683,-0.0296 0.14931,-0.0478 0.18004,-0.0403 0.0727,0.0177 -0.11574,0.0975 -0.22554,0.0955 -0.0618,-0.001 -0.052,-0.013 0.0455,-0.0553 z m 11.236804,-0.0714 c -0.11061,-0.0408 -0.11501,-0.0468 -0.036,-0.0487 0.0495,-0.002 0.11387,0.0129 0.143,0.0313 0.0891,0.0564 0.0263,0.0665 -0.10699,0.0174 z m -9.48669,-0.0857 c 0.0512,-0.0505 0.63871,-0.29204 0.65954,-0.2712 0.0323,0.0324 -0.0444,0.076 -0.33725,0.19156 -0.29906,0.11808 -0.38212,0.1386 -0.32229,0.0796 z m 7.14607,-0.19096 c -0.37989,-0.16429 -0.37946,-0.16406 -0.35393,-0.1896 0.027,-0.027 0.69213,0.25854 0.70714,0.30358 0.0163,0.049 0.0454,0.0584 -0.35321,-0.11398 z m -7.16587,-0.17332 c 0,-0.0344 0.68963,-0.25673 0.71565,-0.23071 0.009,0.009 0.008,0.0246 -0.002,0.0345 -0.0395,0.0395 -0.71424,0.22488 -0.71424,0.19622 z m 7.32792,-0.175 c -0.3763,-0.11703 -0.53799,-0.17936 -0.51774,-0.1996 0.0241,-0.0241 0.93185,0.24407 0.93185,0.2753 0,0.0449 -0.0638,0.0332 -0.41411,-0.0757 z m -8.30017,-0.0756 c 0,-0.0319 1.69137,-0.37269 1.71796,-0.3461 0.0114,0.0114 -0.002,0.0285 -0.0294,0.0379 -0.13172,0.045 -1.68859,0.32909 -1.68859,0.30819 z m 9.12838,-0.0613 c -0.0594,-0.008 -0.34077,-0.0706 -0.62525,-0.13864 -0.28447,-0.068 -0.54779,-0.12371 -0.58515,-0.12371 -0.0374,0 -0.0679,-0.0162 -0.0679,-0.036 0,-0.047 -0.0673,-0.0576 0.90023,0.14218 0.55881,0.11537 0.78508,0.17411 0.66618,0.17291 -0.099,-0.001 -0.22866,-0.009 -0.28808,-0.0167 z m -12.630304,-0.21656 -0.13504,-0.0141 v -0.17787 c 0,-0.15478 0.009,-0.17787 0.0731,-0.17787 0.0402,0 0.0832,0.0284 0.0955,0.063 0.0453,0.12783 0.13011,0.18904 0.26184,0.18904 0.16251,0 0.21768,-0.052 0.21768,-0.20525 0,-0.13659 -0.077,-0.22723 -0.28205,-0.33181 -0.2193,-0.11189 -0.33011,-0.26612 -0.33011,-0.45952 0,-0.13406 0.0189,-0.18045 0.10675,-0.26255 0.14513,-0.13557 0.41867,-0.18239 0.71697,-0.12272 0.10545,0.0211 0.11253,0.0324 0.11253,0.18004 0,0.13285 -0.0112,0.15754 -0.0711,0.15754 -0.0426,0 -0.0935,-0.0433 -0.12696,-0.10803 -0.0471,-0.0911 -0.0772,-0.10802 -0.19177,-0.10802 -0.15912,0 -0.22255,0.051 -0.22178,0.17824 5.2e-4,0.12555 0.0191,0.14584 0.29324,0.32456 0.25664,0.16731 0.31837,0.25551 0.31837,0.45492 0,0.35539 -0.25151,0.48168 -0.83722,0.42041 z m -1.43138,-0.0419 c 0,-0.0177 0.0243,-0.0415 0.054,-0.0529 0.0452,-0.0173 0.054,-0.12389 0.054,-0.65023 0,-0.54607 -0.008,-0.63389 -0.0591,-0.66256 -0.14585,-0.0816 0.001,-0.11457 0.51131,-0.11457 h 0.52002 v 0.18005 c 0,0.14755 -0.0114,0.18001 -0.063,0.17982 -0.0347,-1.1e-4 -0.0906,-0.0487 -0.12436,-0.10803 -0.0554,-0.0974 -0.0789,-0.1078 -0.24306,-0.1078 h -0.18172 v 0.27235 0.27236 l 0.11703,-0.0113 c 0.0803,-0.008 0.12819,-0.0367 0.15257,-0.0923 0.0195,-0.0445 0.0641,-0.081 0.099,-0.081 0.0541,0 0.0635,0.0345 0.0635,0.23406 0,0.19956 -0.009,0.23406 -0.0635,0.23406 -0.0349,0 -0.0795,-0.0365 -0.099,-0.081 -0.0244,-0.0556 -0.0723,-0.0846 -0.15257,-0.0923 l -0.11703,-0.0113 v 0.30837 0.30836 h 0.15943 c 0.12934,0 0.17351,-0.0179 0.23405,-0.0949 0.0411,-0.0522 0.0746,-0.117 0.0746,-0.14403 0,-0.0291 0.0387,-0.0491 0.0947,-0.0491 0.0894,0 0.0935,0.008 0.0724,0.13503 -0.0123,0.0743 -0.0225,0.1634 -0.0227,0.19805 -3.3e-4,0.0572 -0.0503,0.063 -0.54053,0.063 -0.29708,0 -0.54015,-0.0145 -0.54015,-0.0322 z m 2.73672,3.4e-4 c 0,-0.0175 0.0324,-0.0403 0.072,-0.0507 0.0686,-0.0179 0.072,-0.0491 0.072,-0.65237 v -0.63355 h -0.0874 c -0.0974,0 -0.18419,0.0715 -0.2187,0.18026 -0.0126,0.0395 -0.0541,0.0718 -0.0924,0.0718 -0.0604,0 -0.0696,-0.0263 -0.0696,-0.19888 v -0.19889 l 0.63916,0.01 0.63917,0.01 0.0109,0.18906 c 0.0102,0.17665 0.005,0.18899 -0.072,0.18826 -0.0579,-5.2e-4 -0.0992,-0.0359 -0.13692,-0.11703 -0.0386,-0.0831 -0.0822,-0.1195 -0.15304,-0.12764 l -0.099,-0.0114 v 0.63369 c 0,0.53005 0.009,0.63707 0.054,0.65441 0.13207,0.0507 0.0302,0.085 -0.25207,0.085 -0.16834,0 -0.30608,-0.0143 -0.30608,-0.0318 z m 1.15231,0.004 c 0,-0.0197 0.0243,-0.0451 0.054,-0.0565 0.0452,-0.0174 0.054,-0.12422 0.054,-0.65316 0,-0.52893 -0.009,-0.63581 -0.054,-0.65315 -0.0297,-0.0114 -0.054,-0.0458 -0.054,-0.0764 0,-0.0484 0.0573,-0.0528 0.43684,-0.0337 0.546204,0.0275 0.724844,0.10057 0.853064,0.34912 0.0712,0.1381 0.0815,0.2025 0.0693,0.43573 -0.0168,0.32004 -0.1,0.48653 -0.30774,0.61574 -0.11711,0.0728 -0.18872,0.0844 -0.592344,0.0955 -0.28851,0.008 -0.45911,-5.2e-4 -0.45911,-0.0231 z m 0.835974,-0.17546 c 0.11618,-0.10347 0.17228,-0.27743 0.17228,-0.53421 0,-0.39101 -0.15899,-0.63016 -0.418964,-0.63016 h -0.12117 v 0.6349 0.63491 l 0.14683,-0.0197 c 0.0808,-0.0108 0.180224,-0.0494 0.221024,-0.0858 z m 9.78678,0.0593 c 3e-5,-0.0664 0.12578,-0.25514 0.40165,-0.60292 0.22511,-0.28377 0.2817,-0.44894 0.2117,-0.61793 -0.0756,-0.18258 -0.29869,-0.16179 -0.37288,0.0347 -0.033,0.0875 -0.0596,0.10746 -0.13191,0.099 -0.0733,-0.009 -0.0927,-0.033 -0.10188,-0.12847 -0.0102,-0.10534 0.003,-0.1236 0.11725,-0.17162 0.0707,-0.0295 0.22168,-0.0626 0.33544,-0.0734 0.24615,-0.0234 0.4318,0.054 0.50644,0.21117 0.0821,0.17284 0.0224,0.2941 -0.32834,0.66706 l -0.32812,0.34892 0.24568,0.0107 c 0.18288,0.008 0.26143,-0.004 0.30729,-0.045 0.11949,-0.10813 0.16501,-0.0708 0.15149,0.12427 l -0.0125,0.18005 -0.36562,0.003 c -0.2011,0.002 -0.4264,0.005 -0.50068,0.009 -0.0996,0.005 -0.13506,-0.008 -0.13504,-0.0483 z m 1.58076,-0.009 c -0.17516,-0.11717 -0.25288,-0.35618 -0.23771,-0.73109 0.0186,-0.45964 0.17779,-0.69072 0.49834,-0.72337 0.20063,-0.0204 0.38111,0.0698 0.48002,0.23998 0.10705,0.18421 0.10668,0.81848 -5.2e-4,1.02297 -0.13841,0.2638 -0.49431,0.35591 -0.74006,0.19151 z m 0.42596,-0.12359 c 0.0522,-0.0796 0.0638,-0.17654 0.0638,-0.53114 0,-0.51688 -0.0447,-0.66779 -0.19805,-0.66779 -0.14855,0 -0.19815,0.15363 -0.1976,0.61216 5.2e-4,0.41091 0.0233,0.54072 0.11021,0.62764 0.0821,0.0821 0.14912,0.0697 0.2216,-0.0408 z m 0.80204,0.14689 c 0,-0.0233 0.0608,-0.0567 0.13503,-0.0742 l 0.13504,-0.0319 0.0101,-0.49997 c 0.006,-0.27499 -0.003,-0.51321 -0.0194,-0.5294 -0.0162,-0.0162 -0.0881,0.002 -0.15987,0.0405 -0.11685,0.0626 -0.13277,0.0639 -0.15254,0.0124 -0.0267,-0.0696 -0.0589,-0.0419 0.28232,-0.2428 0.15658,-0.0922 0.30798,-0.16287 0.33646,-0.15706 0.0428,0.009 0.0509,0.11765 0.0469,0.63132 -0.003,0.37563 0.0102,0.64874 0.0331,0.69163 0.0213,0.0397 0.0932,0.0812 0.16353,0.0944 0.13036,0.0245 0.17287,0.0857 0.0626,0.0901 -0.53693,0.0216 -0.87323,0.0119 -0.87323,-0.025 z m 1.46438,0.0345 c -0.0451,-0.0451 -0.0241,-0.12004 0.0336,-0.12004 0.13539,0 0.30122,-0.11861 0.37294,-0.26677 0.10425,-0.21535 0.099,-0.28124 -0.0188,-0.23647 -0.17382,0.0661 -0.43471,0.0429 -0.54042,-0.048 -0.1276,-0.10977 -0.16495,-0.41029 -0.0723,-0.58225 0.1278,-0.2373 0.46892,-0.33092 0.75104,-0.20613 0.21921,0.097 0.2909,0.2349 0.29389,0.56544 0.003,0.32672 -0.0837,0.55427 -0.27273,0.71606 -0.16337,0.13984 -0.48184,0.24354 -0.5472,0.17817 z m 0.46842,-0.82677 c 0.0414,-0.0632 0.0494,-0.12863 0.031,-0.25197 -0.0443,-0.29555 -0.26084,-0.41353 -0.39842,-0.2171 -0.0648,0.0925 -0.07,0.42033 -0.008,0.49861 0.0944,0.11905 0.28801,0.10381 0.37539,-0.0296 z m -13.85044,0.71148 c 0.053,-0.0343 0.91684,-0.14864 1.12381,-0.14874 0.0545,-2e-5 0.099,0.0135 0.099,0.03 0,0.0165 -0.20265,0.0497 -0.45033,0.0737 -0.24767,0.024 -0.5353,0.052 -0.63916,0.0623 -0.13301,0.0131 -0.17244,0.008 -0.13335,-0.0173 z m 8.26268,-0.0966 c -0.23766,-0.0247 -0.51719,-0.0466 -0.62116,-0.0486 -0.10398,-0.002 -0.18905,-0.0199 -0.18905,-0.0396 0,-0.0198 0.0365,-0.0352 0.081,-0.0342 0.20719,0.005 1.36304,0.1339 1.38387,0.15473 0.0305,0.0305 -0.12447,0.0229 -0.65468,-0.0323 z m -8.22815,-0.3763 c 0,-0.0432 0.94548,-0.0432 1.08028,0 0.0537,0.0172 -0.14594,0.0303 -0.49513,0.0324 -0.36849,0.003 -0.58515,-0.01 -0.58515,-0.0324 z m 7.45395,0 c 0,-0.023 0.30608,-0.036 0.84622,-0.036 0.54014,0 0.84622,0.013 0.84622,0.036 0,0.023 -0.30608,0.036 -0.84622,0.036 -0.54014,0 -0.84622,-0.013 -0.84622,-0.036 z m -7.12144,-0.32358 c -0.1241,-0.0141 -0.23753,-0.0385 -0.25207,-0.0541 -0.0338,-0.0363 0.58647,0.006 0.72977,0.0503 0.0975,0.0299 0.0906,0.0329 -0.072,0.0313 -0.099,-0.001 -0.28158,-0.0134 -0.40568,-0.0275 z m 7.39151,-0.0303 c 0.0198,-0.0208 0.26622,-0.0632 0.54759,-0.0941 0.58861,-0.0647 0.62665,-0.0663 0.55069,-0.0238 -0.0297,0.0167 -0.26466,0.0497 -0.52213,0.0734 -0.25747,0.0237 -0.50053,0.0519 -0.54014,0.0627 -0.0496,0.0135 -0.0608,0.008 -0.036,-0.0182 z m 0.054,-0.32779 c 0,-0.0184 0.0851,-0.05 0.18905,-0.0703 0.10398,-0.0202 0.34704,-0.0678 0.54014,-0.10571 0.19311,-0.0379 0.3511,-0.0552 0.3511,-0.0385 0,0.0352 -0.0146,0.039 -0.60811,0.15826 -0.51733,0.10395 -0.47218,0.0986 -0.47218,0.0562 z m -7.54397,-0.0909 c -0.36506,-0.0771 -0.59415,-0.14419 -0.59415,-0.17399 0,-0.007 0.25926,0.0368 0.57615,0.0966 0.31688,0.0598 0.57615,0.12152 0.57615,0.13723 0,0.0445 -0.13001,0.0306 -0.55815,-0.0598 z m 0.09,-0.37974 c -0.16457,-0.054 -0.17979,-0.0654 -0.09,-0.0676 0.0594,-0.002 0.17284,0.0281 0.25206,0.0656 0.18169,0.086 0.0972,0.087 -0.16204,0.002 z m 7.54099,0.0408 c 0.0291,-0.0471 0.29763,-0.12334 0.35676,-0.10125 0.0485,0.0181 -0.0809,0.0749 -0.25925,0.11369 -0.0836,0.0182 -0.11404,0.0143 -0.0975,-0.0124 z m -13.189154,-0.34623 c 0.01,-0.01 0.735,-0.049 1.61215,-0.0878 0.87715,-0.0387 1.59742,-0.0755 1.60061,-0.0817 0.003,-0.006 0.0522,-0.14901 0.10895,-0.31736 0.38936,-1.15529 0.90507,-2.00447 1.694804,-2.79073 0.51316,-0.5109 0.94407,-0.8147 1.65792,-1.16887 0.91718,-0.45505 1.60803,-0.64985 2.58325,-0.72841 0.68226,-0.055 1.23475,-0.007 1.90971,0.16608 1.1603,0.29737 2.0597,0.75197 2.84559,1.43827 0.6585,0.57505 1.01114,0.99609 1.38889,1.65827 0.23311,0.40862 0.64898,1.38586 0.67711,1.59113 0.0195,0.14197 0.0322,0.1585 0.13374,0.17391 0.0617,0.009 0.76851,0.044 1.57062,0.0769 0.80211,0.0329 1.46513,0.0661 1.47338,0.0737 0.008,0.008 -1.26783,0.0138 -2.83574,0.0138 h -2.85075 v -0.14622 -0.14621 l 0.24307,0.0202 c 0.40079,0.0332 2.06666,0.0991 2.08335,0.0824 0.0303,-0.0303 -0.24585,-0.77086 -0.43577,-1.16853 -0.90198,-1.88863 -2.7888,-3.28183 -4.89743,-3.61616 -0.37247,-0.0591 -1.35895,-0.0587 -1.72845,5.2e-4 -1.61941,0.25987 -3.06159,1.04909 -4.03548,2.20836 -0.624214,0.74304 -1.196294,1.78447 -1.345824,2.44997 l -0.0323,0.14374 0.33018,-0.0215 c 0.18159,-0.0118 0.58133,-0.0303 0.888314,-0.041 0.30699,-0.0107 0.65943,-0.0285 0.78321,-0.0394 l 0.22506,-0.02 v 0.1469 0.1469 h -2.832744 c -1.55801,0 -2.82495,-0.008 -2.81542,-0.0173 z m 5.108024,-0.39402 c -0.0495,-0.0266 -0.29729,-0.13331 -0.55062,-0.23714 -0.253324,-0.10384 -0.451714,-0.19767 -0.440864,-0.20852 0.0254,-0.0254 1.170224,0.43403 1.170974,0.4699 5.2e-4,0.0407 -0.0786,0.03 -0.17949,-0.0242 z m 9.07438,-0.0302 c 0.0413,-0.0435 0.99201,-0.4241 1.03622,-0.41481 0.0702,0.0148 -0.74021,0.37833 -0.91019,0.40835 -0.0792,0.014 -0.13594,0.0169 -0.12603,0.006 z m -9.03128,-0.44668 c -0.44172,-0.22896 -0.795184,-0.42424 -0.785464,-0.43397 0.0242,-0.0242 1.606594,0.78805 1.606594,0.82471 0,0.0385 0.0853,0.0791 -0.82113,-0.39074 z m 8.22286,0.28034 c 0.0188,-0.0175 0.30969,-0.18126 0.64637,-0.36401 0.33669,-0.18274 0.68002,-0.37111 0.76296,-0.41859 0.0829,-0.0475 0.15998,-0.0714 0.17121,-0.0533 0.0112,0.0181 -0.32997,0.22082 -0.75823,0.45031 -0.70124,0.37579 -0.92479,0.4806 -0.82231,0.38555 z m -10.337924,-0.1333 c -0.012,-0.0379 -0.0338,-0.0922 -0.0485,-0.1205 -0.0147,-0.0283 -0.34976,-0.17689 -0.74459,-0.3302 l -0.71788,-0.27874 -0.0434,0.0961 c -0.0647,0.14342 -0.0569,0.18139 0.0614,0.29973 0.11189,0.11189 0.12754,0.16002 0.0776,0.23866 -0.0231,0.0364 -0.0743,0.0293 -0.24251,-0.0334 -0.11728,-0.0438 -0.21878,-0.0836 -0.22556,-0.0885 -0.0137,-0.01 0.55534,-1.48747 0.58383,-1.51596 0.0188,-0.0188 0.33297,0.0782 0.4084,0.1262 0.0246,0.0157 0.0345,0.0626 0.0228,0.1075 -0.0175,0.0668 -0.0461,0.0797 -0.17609,0.0797 -0.12551,0 -0.16978,0.0185 -0.23123,0.0966 -0.0418,0.0531 -0.0713,0.11941 -0.0656,0.14727 0.009,0.0452 1.3394,0.58432 1.44158,0.58432 0.0217,0 0.0681,-0.0259 0.10309,-0.0575 0.13123,-0.11876 0.1334,-0.0109 0.006,0.31899 -0.14467,0.37588 -0.17847,0.429 -0.20979,0.32972 z m 13.238584,-0.0579 c -0.0177,-0.0457 -0.0825,-0.20919 -0.14397,-0.3632 -0.0615,-0.154 -0.11179,-0.28769 -0.11179,-0.29707 0,-0.0383 0.0886,-0.0132 0.15028,0.0426 0.062,0.0561 0.10336,0.045 0.68702,-0.18422 0.3416,-0.13414 0.67326,-0.26529 0.73703,-0.29144 0.1088,-0.0446 0.11366,-0.0541 0.0787,-0.15447 -0.0428,-0.1228 -0.20264,-0.20509 -0.33422,-0.17206 -0.0862,0.0216 -0.13048,-0.0251 -0.13048,-0.13765 0,-0.0556 0.39669,-0.21412 0.43596,-0.17421 0.0299,0.0303 0.61336,1.49574 0.59899,1.50433 -0.043,0.0257 -0.4038,0.16222 -0.42875,0.16222 -0.0178,0 -0.0457,-0.036 -0.062,-0.08 -0.0232,-0.0627 -0.0107,-0.0949 0.0582,-0.14901 0.0483,-0.038 0.10039,-0.10318 0.11582,-0.1449 0.0296,-0.0799 -0.0204,-0.27429 -0.0705,-0.27429 -0.0661,0 -1.35467,0.51907 -1.41293,0.56916 -0.0347,0.0298 -0.063,0.0831 -0.063,0.11848 0,0.10082 -0.0687,0.11776 -0.10433,0.0257 z m -3.10051,-0.0909 c 0,-0.0458 1.47405,-1.03288 1.50146,-1.00546 0.0291,0.0291 0.10444,-0.0259 -0.72678,0.531 -0.78915,0.52872 -0.77468,0.51986 -0.77468,0.47446 z m -7.74928,-0.47665 c -0.64599,-0.43345 -0.83798,-0.57717 -0.71293,-0.53371 0.0297,0.0103 0.28897,0.18061 0.57615,0.3784 0.28717,0.1978 0.57193,0.38512 0.63279,0.41627 0.10774,0.0551 0.21995,0.16119 0.19155,0.18102 -0.008,0.005 -0.31718,-0.19346 -0.68756,-0.44198 z m 0.23348,-0.38857 c -0.38061,-0.31007 -0.68594,-0.56982 -0.67852,-0.57725 0.0339,-0.0339 0.2547,0.12255 0.63518,0.44994 0.22737,0.19564 0.48989,0.40835 0.58338,0.47266 0.0935,0.0643 0.16998,0.14048 0.16998,0.16924 0,0.0288 -0.004,0.0516 -0.009,0.0507 -0.005,-5.2e-4 -0.32041,-0.25525 -0.70102,-0.56531 z m 7.26374,0.46731 c 0,-0.0151 0.26947,-0.25349 0.59882,-0.52963 0.80506,-0.67501 0.76953,-0.64818 0.76953,-0.58087 0,0.0305 -0.0932,0.12409 -0.20705,0.20794 -0.11388,0.0838 -0.41315,0.32742 -0.66505,0.54127 -0.45126,0.38311 -0.49625,0.41587 -0.49625,0.36129 z m -7.02059,-0.99747 c -0.26614,-0.26668 -0.47265,-0.49611 -0.45892,-0.50984 0.0137,-0.0137 0.11017,0.0546 0.21431,0.15179 0.33145,0.3094 0.79968,0.84293 0.73978,0.84293 -0.006,0 -0.22904,-0.2182 -0.49517,-0.48488 z m 7.05742,0.45158 c -0.001,-0.0658 0.91292,-0.98905 0.96092,-0.97073 0.0199,0.008 -0.18807,0.24062 -0.46202,0.51789 -0.27395,0.27728 -0.49846,0.48106 -0.4989,0.45284 z m -9.388064,-0.31531 c 0.006,-0.0848 -0.0652,-0.15236 -0.58738,-0.55755 -0.50335,-0.39056 -0.61174,-0.4599 -0.70925,-0.45368 -0.0633,0.004 -0.12545,-0.003 -0.1381,-0.0157 -0.0336,-0.0336 0.37884,-0.56902 0.43829,-0.56902 0.0351,0 0.0438,0.0261 0.0287,0.0861 -0.0185,0.0736 0.0148,0.11551 0.22835,0.28808 0.13749,0.11108 0.25885,0.20196 0.26971,0.20196 0.022,0 0.3864,-0.45651 0.3864,-0.48414 0,-0.01 -0.10935,-0.10036 -0.243,-0.20154 -0.19431,-0.14709 -0.2626,-0.18004 -0.3407,-0.16443 -0.0537,0.0107 -0.10597,0.006 -0.11611,-0.0103 -0.0247,-0.0399 0.36802,-0.56199 0.42274,-0.56199 0.0236,0 0.0393,0.0355 0.0348,0.0789 -0.009,0.0903 0.12213,0.20873 0.8089,0.72811 0.39291,0.29714 0.452364,0.33063 0.549154,0.30937 0.0597,-0.0131 0.10854,-0.0124 0.10854,0.002 0,0.0545 -0.416164,0.58922 -0.450124,0.57837 -0.0198,-0.006 -0.0315,-0.0533 -0.026,-0.10437 0.008,-0.0783 -0.0349,-0.12705 -0.27695,-0.31131 -0.15781,-0.12013 -0.30004,-0.21795 -0.31607,-0.21738 -0.0252,0.001 -0.33502,0.4001 -0.36362,0.46858 -0.006,0.0137 0.12147,0.12327 0.28265,0.24351 0.24947,0.1861 0.30571,0.2138 0.37822,0.18623 0.15353,-0.0584 0.13157,0.0287 -0.0771,0.30603 -0.21475,0.2853 -0.30356,0.33836 -0.29205,0.17445 z m 11.950794,-0.2879 c -0.26014,-0.12821 -0.53758,-0.59695 -0.49324,-0.83335 0.0385,-0.20543 0.1363,-0.30912 0.67245,-0.71328 0.44268,-0.33369 0.50121,-0.38993 0.49131,-0.47206 -0.006,-0.0513 0.007,-0.0993 0.0285,-0.10662 0.0417,-0.014 0.4464,0.49879 0.4464,0.56573 0,0.0239 -0.0449,0.031 -0.11702,0.0185 -0.10602,-0.0183 -0.16398,0.0159 -0.61556,0.36318 -0.2742,0.21088 -0.52977,0.43396 -0.56794,0.49574 -0.0841,0.136 -0.0638,0.25332 0.0675,0.39138 0.17346,0.18236 0.282,0.14106 0.92572,-0.35228 0.49272,-0.3776 0.53233,-0.41666 0.51655,-0.50927 -0.0211,-0.124 0.0748,-0.0655 0.23877,0.1457 0.0903,0.11626 0.16414,0.22468 0.16414,0.24093 0,0.0487 -0.0653,0.0737 -0.0896,0.0344 -0.046,-0.0744 -0.13084,-0.0283 -0.63613,0.34574 -0.2841,0.21028 -0.55406,0.39663 -0.5999,0.41411 -0.12647,0.0482 -0.2993,0.0368 -0.43189,-0.0286 z m -9.45036,-0.37912 c -0.26292,-0.31932 -0.32099,-0.44221 -0.11471,-0.24277 0.13785,0.13328 0.41179,0.47556 0.41179,0.51452 0,0.0662 -0.076,-0.004 -0.29708,-0.27175 z m 6.95883,0.084 c 0,-0.0397 0.35477,-0.48657 0.39913,-0.50272 0.0677,-0.0247 0.0275,0.0419 -0.17226,0.28466 -0.211,0.25649 -0.22687,0.27175 -0.22687,0.21806 z m -0.19884,-0.58975 c 0.0513,-0.0842 0.10774,-0.1772 0.12537,-0.20675 0.0176,-0.0296 0.0434,-0.0423 0.0574,-0.0284 0.0303,0.0303 -0.19258,0.38817 -0.24178,0.38817 -0.0189,0 0.008,-0.0689 0.059,-0.15304 z m 1.49728,-0.41531 c -0.28624,-0.16933 -0.52553,-0.42413 -0.57666,-0.61404 -0.0528,-0.19593 0.004,-0.41643 0.17677,-0.68278 0.4402,-0.6799 1.04538,-0.76576 1.5787,-0.22398 l 0.18597,0.18893 -0.1134,0.15791 c -0.0624,0.0868 -0.13297,0.1579 -0.15689,0.1579 -0.0789,0 -0.12518,-0.0948 -0.10223,-0.20957 0.0357,-0.17874 -0.0106,-0.29023 -0.14784,-0.35568 -0.10669,-0.0509 -0.14514,-0.0527 -0.27759,-0.013 -0.29203,0.0875 -0.821,0.75492 -0.821,1.03589 0,0.13848 0.0957,0.28471 0.22008,0.33622 0.10268,0.0425 0.13022,0.0397 0.24926,-0.0254 0.12374,-0.0678 0.13942,-0.069 0.20813,-0.0157 0.0739,0.0572 0.0735,0.0586 -0.0626,0.22669 l -0.13689,0.16913 z m -9.41703,0.0667 c -0.0126,-0.0203 -0.006,-0.0693 0.0155,-0.10876 0.0331,-0.0618 -0.0169,-0.14531 -0.36233,-0.6039 -0.486384,-0.64588 -0.563474,-0.7302 -0.667614,-0.7302 -0.0446,0 -0.089,-0.0127 -0.0986,-0.0282 -0.01,-0.0155 0.23179,-0.21805 0.5364,-0.45008 l 0.553824,-0.42187 0.12766,0.16718 c 0.0702,0.0919 0.12766,0.17716 0.12766,0.18936 0,0.0122 -0.0314,0.0418 -0.0699,0.0658 -0.0559,0.0349 -0.0902,0.033 -0.17104,-0.009 -0.14447,-0.0754 -0.17885,-0.0684 -0.37544,0.0759 l -0.175884,0.12911 0.112454,0.1566 c 0.0618,0.0861 0.15571,0.2084 0.20857,0.27172 l 0.0961,0.11512 0.10518,-0.0905 c 0.0839,-0.0721 0.10347,-0.11602 0.0967,-0.21661 -0.006,-0.0899 0.009,-0.13275 0.0515,-0.14917 0.033,-0.0127 0.0632,-0.0186 0.0671,-0.0132 0.004,0.005 0.0759,0.10231 0.16,0.2153 0.19198,0.2579 0.15269,0.34035 -0.10932,0.22938 -0.0367,-0.0156 -0.0991,0.0101 -0.16989,0.0696 l -0.11192,0.0942 0.1852,0.24082 c 0.28832,0.37493 0.258,0.35666 0.40544,0.2442 0.2029,-0.15476 0.24702,-0.24318 0.20223,-0.40538 -0.0324,-0.11743 -0.0283,-0.14687 0.0291,-0.20419 0.0653,-0.0653 0.0692,-0.0639 0.15673,0.0536 0.0494,0.0663 0.11638,0.16251 0.14891,0.21381 l 0.0592,0.0933 -0.51351,0.38972 c -0.28243,0.21435 -0.53233,0.40406 -0.55532,0.4216 -0.025,0.019 -0.051,0.017 -0.0647,-0.005 z m 2.99625,-0.45538 c -0.0149,-0.015 -0.027,-0.0602 -0.027,-0.10045 0,-0.053 0.0109,-0.0623 0.0394,-0.0338 0.0217,0.0217 0.0338,0.0669 0.027,0.10046 -0.007,0.0336 -0.0245,0.0488 -0.0394,0.0339 z m 5.2256,-0.48956 c -0.2746,-0.12376 -0.28221,-0.1417 -0.28292,-0.66636 -3.3e-4,-0.2745 -0.007,-0.29948 -0.0947,-0.3686 -0.0519,-0.0408 -0.10706,-0.0662 -0.1227,-0.0566 -0.0157,0.01 -0.08,0.14147 -0.14305,0.29288 -0.0996,0.23916 -0.10866,0.28643 -0.0693,0.35998 0.0249,0.0466 0.0358,0.0941 0.0243,0.10573 -0.0116,0.0116 -0.16309,-0.0418 -0.33667,-0.11856 -0.30648,-0.13558 -0.4169,-0.22648 -0.27512,-0.22648 0.11265,0 0.16774,-0.0917 0.47555,-0.79133 0.25279,-0.57459 0.28698,-0.67599 0.25077,-0.74365 -0.0231,-0.0431 -0.036,-0.0943 -0.0287,-0.11384 0.0218,-0.0587 0.93543,0.36394 1.08168,0.50038 0.22111,0.2063 0.22775,0.47522 0.0174,0.70477 -0.0924,0.10084 -0.15072,0.13058 -0.2859,0.14582 -0.0934,0.0105 -0.1698,0.0259 -0.1698,0.0342 0,0.008 0.0221,0.0589 0.049,0.11235 0.027,0.0535 0.0587,0.24109 0.0706,0.41691 0.0154,0.22838 0.0392,0.33917 0.0833,0.38795 0.11347,0.12538 0.005,0.13627 -0.24375,0.0244 z m 0.0511,-1.2185 c 0.13719,-0.10791 0.22665,-0.36634 0.17226,-0.49765 -0.037,-0.0892 -0.30834,-0.28873 -0.34383,-0.25279 -0.0175,0.0177 -0.30687,0.67799 -0.30687,0.70017 0,0.0303 0.22894,0.11976 0.31023,0.12127 0.0419,5.2e-4 0.11758,-0.0312 0.16821,-0.071 z m -6.32519,0.8461 c -0.0101,-0.0261 0.005,-0.0565 0.0335,-0.0674 0.0807,-0.031 0.0653,-0.12005 -0.1446,-0.83135 -0.22245,-0.75398 -0.24678,-0.81119 -0.34507,-0.81119 -0.0389,0 -0.0707,-0.0203 -0.0705,-0.045 2.7e-4,-0.0472 0.67809,-0.26092 0.71395,-0.22506 0.0111,0.0111 -0.006,0.0643 -0.0372,0.11814 -0.0535,0.0913 -0.0519,0.11695 0.0236,0.37768 0.0445,0.15387 0.0879,0.28663 0.0963,0.29502 0.0172,0.0172 0.55588,-0.13303 0.5863,-0.16345 0.0107,-0.0107 -0.0246,-0.1563 -0.0786,-0.32346 -0.0813,-0.25163 -0.11212,-0.30591 -0.1792,-0.31543 -0.0445,-0.006 -0.081,-0.034 -0.081,-0.0615 0,-0.0443 0.23986,-0.13343 0.58122,-0.21593 0.11143,-0.0269 0.16164,0.0272 0.0845,0.0912 -0.0295,0.0245 -0.053,0.0709 -0.0523,0.1031 5.2e-4,0.0323 0.0949,0.3746 0.20932,0.7608 0.18684,0.63088 0.21778,0.70695 0.30472,0.74916 0.0532,0.0258 0.0968,0.06 0.0968,0.076 0,0.039 -0.67782,0.23748 -0.708,0.20731 -0.0131,-0.0131 0.006,-0.0564 0.0419,-0.0963 0.0637,-0.0704 0.0627,-0.0828 -0.0363,-0.42333 -0.0561,-0.19292 -0.10554,-0.35575 -0.10995,-0.36182 -0.0198,-0.0272 -0.56519,0.15499 -0.58008,0.1938 -0.009,0.0239 0.0259,0.18309 0.0779,0.35372 0.0822,0.26958 0.10967,0.31806 0.2094,0.36999 l 0.11478,0.0598 -0.10802,0.0439 c -0.0594,0.0242 -0.22438,0.0766 -0.36659,0.11656 -0.20714,0.0582 -0.26218,0.0632 -0.2768,0.0251 z m 4.23533,-0.35101 c -0.1832,-0.0408 -0.33309,-0.0881 -0.33309,-0.10524 0,-0.0172 0.0385,-0.0458 0.0855,-0.0636 0.0968,-0.0368 0.0899,-0.0147 0.25333,-0.80298 0.17172,-0.82804 0.16695,-0.77887 0.0832,-0.8569 -0.0646,-0.0602 -0.0664,-0.0709 -0.0149,-0.0906 0.0812,-0.0311 0.68296,0.10355 0.70072,0.15682 0.008,0.0239 -0.0108,0.0435 -0.0417,0.0435 -0.10377,0 -0.15972,0.15842 -0.30522,0.86423 -0.12978,0.62956 -0.13937,0.71043 -0.0927,0.78194 0.0564,0.0865 0.0681,0.15649 0.025,0.15062 -0.0148,-0.002 -0.1769,-0.037 -0.36009,-0.0778 z m -2.34962,-0.16898 c 0,-0.0189 0.0371,-0.0716 0.0824,-0.11703 0.0512,-0.0514 0.19426,-0.39361 0.37809,-0.90458 0.16265,-0.45205 0.29572,-0.8369 0.29572,-0.85522 0,-0.0183 0.0878,-0.0333 0.19509,-0.0333 h 0.1951 l 0.0907,0.27907 c 0.0499,0.15349 0.17347,0.54242 0.27459,0.86428 0.11781,0.37503 0.21144,0.61092 0.26068,0.65679 0.0423,0.0394 0.0696,0.0789 0.0607,0.0878 -0.009,0.009 -0.18192,0.0276 -0.38449,0.0415 -0.39115,0.027 -0.44939,0.003 -0.29316,-0.12425 0.0712,-0.0577 0.0726,-0.0711 0.027,-0.25784 l -0.0481,-0.19699 -0.29741,-0.0105 c -0.29609,-0.0104 -0.29759,-0.01 -0.33625,0.09 -0.0818,0.21172 -0.082,0.32549 -5.2e-4,0.37627 0.15474,0.0966 0.0909,0.13832 -0.21182,0.13832 -0.15891,0 -0.28808,-0.0154 -0.28808,-0.0344 z m 1.05061,-0.81185 c -0.0289,-0.17824 -0.19895,-0.66773 -0.22287,-0.64142 -0.0146,0.0161 -0.0715,0.167 -0.12637,0.33534 -0.0549,0.16834 -0.10753,0.32712 -0.11702,0.35284 -0.0133,0.0361 0.0392,0.0443 0.23034,0.036 0.22463,-0.01 0.24651,-0.0174 0.23592,-0.0828 z"
       id="path847"
       inkscape:transform-center-x="-8.4733574"
       inkscape:transform-center-y="-39.057197"
       inkscape:export-xdpi="300"
       inkscape:export-ydpi="300" />
  </g>
</svg>
